<svg xmlns="http://www.w3.org/2000/svg" xmlns:xlink="http://www.w3.org/1999/xlink" xmlns:inkscape="http://www.inkscape.org/namespaces/inkscape" version="1.1" width="844.1055" height="597.4916" viewBox="0 0 844.1055 597.4916">
<g inkscape:groupmode="layer" inkscape:label="Capa 1">
<path transform="matrix(1,0,0,-1,1,596.4916)" d="M.108 595.3836H841.9975V.108H.108Z" fill="#231f20" fill-rule="evenodd"/>
<path transform="matrix(1,0,0,-1,1,596.4916)" stroke-width=".216" stroke-linecap="butt" stroke-miterlimit="22.925585" stroke-linejoin="miter" fill="none" stroke="#231f20" d="M.108 595.3836H841.9975V.108H.108Z"/>
<path transform="matrix(1,0,0,-1,1,596.4916)" d="M351.7724 440.8673C351.337 431.157 347.9298 429.1549 346.7251 427.7889 315.542 392.0562 313.1688 385.2037 309.8426 376.9841 306.4113 368.5289 302.9528 346.1241 314.1652 333.9743 311.4828 343.1265 309.6663 348.5917 310.231 355.2143 311.6083 371.6728 323.5266 386.8483 333.1723 399.111 337.8489 405.0499 344.0364 409.8671 348.1741 416.2107 350.0595 419.1106 356.0601 431.8532 351.7724 440.8673ZM301.246 392.1885C293.3991 372.5022 296.0991 355.284 300.2238 346.695 297.5817 361.5293 303.1228 379.3062 324.0473 407.3576 329.6027 414.8229 336.9745 422.4847 337.8427 432.1035 338.6934 441.5153 335.2677 451.1492 329.3192 458.2032 329.6211 451.1358 329.0539 445.0141 326.6751 438.2666 321.1157 422.4436 307.4051 407.5937 301.246 392.1885ZM295.4415 423.669C292.1216 414.9978 287.7134 406.6316 285.6365 397.4927 283.2129 386.7372 282.0609 374.6288 285.7759 363.9566 287.0677 360.2608 288.7929 356.4828 290.7706 353.1716 292.9232 349.6229 294.7088 344.7298 297.5817 341.8719L299.0251 341.8994C298.6628 345.0504 296.5997 348.4525 295.717 351.5749 294.5974 355.6185 293.7146 359.6474 293.0683 363.7891 292.1474 369.7345 291.0988 375.7088 292.6273 381.6196 294.1095 387.3515 297.2999 392.6906 299.8939 397.9392 306.1012 410.5154 312.1892 422.0938 315.22 436.0771 317.0767 444.7361 315.4771 453.5748 313.446 462.0172 312.1628 467.3631 306.174 485.9768 299.7964 489.2805 304.526 476.4818 304.619 466.7635 304.1838 460.2115 303.3677 448.0262 299.8227 435.1431 295.4415 423.669ZM270.4578 474.9474C271.3731 469.5525 271.0834 463.6834 271.5248 458.2032 272.126 451.0239 272.0716 443.6201 271.8283 436.3982 271.3932 423.5715 270.3144 410.5361 270.794 397.7096 271.2291 386.0121 271.9276 374.802 273.7054 363.2445 275.076 354.4053 285.3408 337.1318 285.3408 337.1318 281.0648 344.2416 281.6844 357.5704 281.196 365.6001 280.3541 380.4075 279.9513 395.4779 283.9578 409.7968 285.9602 416.9497 287.1326 424.2061 288.4382 431.5187 289.5114 437.5287 290.9203 443.5089 290.3885 449.6709 289.5965 458.5944 286.8043 466.5407 282.3503 474.0551 279.8722 478.2246 267.842 491.6914 264.1799 493.6088 264.5867 492.0001 266.0238 490.4374 266.6373 488.7505 268.2833 484.2337 269.6278 479.7578 270.4578 474.9474ZM249.4746 418.0927C250.0682 403.4392 253.2688 389.9993 257.4782 376.141 260.3979 366.5214 264.7585 359.0901 270.3648 351.1086 274.0156 345.8869 282.5345 338.7345 282.5345 338.7345 280.0505 340.5056 277.2505 345.8869 275.6752 348.584 272.802 353.5132 271.3932 359.9408 270.0751 365.5103 266.7229 379.5287 264.7463 393.9449 263.5217 408.3333 262.1429 424.5267 263.6065 440.8047 262.8414 456.9911 262.3289 467.5864 260.2922 478.2515 256.2211 487.9556 252.1497 497.6042 245.4681 510.8627 235.4604 514.7529 242.1218 499.7367 244.7314 483.215 246.2454 466.7635 247.7477 450.5922 248.8354 434.3207 249.4746 418.0927ZM246.8387 372.2661C248.6511 367.7272 250.8979 363.2031 253.5585 359.1317 255.4432 356.2316 257.6625 352.5653 260.4966 350.6615L263.4871 350.0283C261.5434 350.9623 259.8837 355.0119 258.8224 356.9145 256.326 361.3487 254.3034 366.5914 252.7546 371.4846 248.4726 385.0226 246.4824 399.3817 244.0715 413.3733 241.2448 429.7618 239.2226 446.1571 235.6384 462.3863 233.096 473.9298 229.4983 484.5121 221.2702 492.9188 217.2895 497.0047 200.035 508.938 192.5113 507.7395 221.1245 459.5491 230.7044 423.307 236.4831 403.5509 239.5261 393.1364 242.814 382.2897 246.8387 372.2661ZM268.0262 333.2205C264.0943 343.5026 249.9545 350.3069 232.871 398.0993 227.1861 414.0215 220.4844 429.3009 212.7889 444.2893 204.5214 460.4063 193.2423 480.3919 176.7847 488.2209 169.6241 491.6234 160.67 491.9426 153.1191 489.8653 147.803 488.3944 142.7037 485.9901 137.4123 484.6238 150.9922 483.4871 165.0044 474.4321 175.2959 465.4811 205.3789 439.3338 247.3713 349.2952 247.3713 349.2952 247.3713 349.2961 254.1458 346.0122 268.0262 333.2205ZM312.8797 327.5388C311.4581 332.2519 308.8548 336.6091 306.8518 341.028 304.9007 345.2803 304.8094 349.0937 304.0926 353.6252 303.5582 350.8784 302.9712 348.0338 302.5091 345.2111 302.2143 343.2515 301.4365 341.0561 301.2987 339.0968 301.0881 336.1428 301.8716 332.4183 302.3393 329.4499 303.2345 323.9274 305.5686 318.7962 306.1276 313.1711 306.4377 310.2174 305.7449 307.0446 306.7407 304.1589 304.1518 310.8986 302.9063 318.2675 300.7174 325.1823 298.94 330.7737 297.0675 336.9498 294.249 342.0113 292.5159 345.1068 290.8562 350.572 288.3597 352.9837 287.1204 349.7766 287.9161 345.5385 288.0031 342.1786 288.0944 337.5638 288.2724 332.8515 289.55 328.3892 291.5138 321.5302 295.638 315.5641 296.7129 308.3766 293.3399 316.2263 289.0035 323.3489 284.0168 330.2291 280.597 334.9293 276.605 338.8748 273.2258 343.5727 271.8026 345.5461 270.3144 347.4201 268.81 349.2612 267.7167 350.5776 266.775 352.8017 265.5624 353.6666 266.038 344.5345 269.3035 334.6486 272.9622 326.4659 275.584 320.603 281.4474 317.4041 284.6546 311.98 281.9738 313.5419 279.7872 316.4272 277.3698 318.5053 272.2966 322.8627 268.581 328.7446 263.6328 333.2132 259.7723 336.7054 255.9495 339.7388 251.2261 341.8441 248.762 342.9309 245.2311 344.1574 243.4717 346.2491 249.8494 336.4268 255.7854 326.0047 264.1272 317.8497 272.0333 310.1272 281.0446 302.4709 291.198 298.4287 294.9131 296.9357 298.8088 296.0507 302.5035 294.4826 305.1658 293.3391 307.7938 291.604 310.6868 291.1921 311.8008 291.0385 312.8675 291.1303 313.8817 291.3531 314.0867 296.6851 314.3494 302.0403 314.7585 307.3513 314.5944 307.2396 314.4626 307.1001 314.2908 307.0037 315.5683 313.2612 314.7585 321.4315 312.8797 327.5388" fill="#d9a628" fill-rule="evenodd"/>
<path transform="matrix(1,0,0,-1,1,596.4916)" d="M470.0395 416.2107C474.1758 409.8671 480.363 405.0499 485.0416 399.111 494.6927 386.8492 506.598 371.6728 507.9886 355.2143 508.5476 348.5917 506.7351 343.1265 504.0488 333.9743 515.2609 346.1241 511.8089 368.528 508.3713 376.9841 505.0426 385.204 502.6782 392.0559 471.4889 427.7889 470.2825 429.1551 466.8769 431.1558 466.4418 440.8668 462.1513 431.8537 468.1545 419.1106 470.0395 416.2107ZM491.5426 438.2666C489.1518 445.0141 488.5906 451.1356 488.8947 458.2032 482.9525 451.1492 479.5206 441.5153 480.3687 432.1035 481.2395 422.4847 488.6113 414.8229 494.1643 407.3576 515.0968 379.3068 520.6306 361.5293 517.9898 346.695 522.1145 355.284 524.8154 372.5022 516.9614 392.1885 510.8151 407.5943 497.0982 422.443 491.5426 438.2666ZM514.0284 460.2115C513.595 466.7635 513.68 476.4818 518.4176 489.2805 512.0396 485.9768 506.0509 467.3631 504.7654 462.0172 502.7366 453.5751 501.1356 444.7358 502.9937 436.0771 506.0245 422.0938 512.1125 410.5154 518.3181 397.9392 520.914 392.6906 524.1025 387.3506 525.5906 381.6196 527.1214 375.7093 526.0666 369.7345 525.1368 363.7891 524.4973 359.6479 523.6143 355.6185 522.4952 351.5749 521.6182 348.4525 519.5509 345.0492 519.1889 341.8994L520.6306 341.8719C523.5035 344.7298 525.2888 349.6229 527.4369 353.1716 529.4191 356.4831 531.146 360.2608 532.438 363.9566 536.1591 374.629 534.9988 386.7367 532.5752 397.4927 530.5005 406.6325 526.0924 414.9978 522.7722 423.6681 518.3912 435.1436 514.8462 448.0257 514.0284 460.2115ZM551.5824 488.7505C552.1901 490.4382 553.6253 491.9992 554.034 493.6088 550.3632 491.692 538.3395 478.2246 535.8637 474.0551 531.4096 466.5407 528.6152 458.5941 527.8255 449.6709 527.2911 443.5089 528.7082 437.5287 529.7757 431.5187 531.0876 424.207 532.2594 416.9492 534.2618 409.7968 538.2609 395.4784 537.8661 380.4075 537.0154 365.6001 536.5293 357.5704 537.1469 344.2411 532.8731 337.1318 532.8731 337.1318 543.1357 354.4053 544.5065 363.2445 546.2921 374.802 546.9766 386.0116 547.4197 397.7096 547.8996 410.5366 546.8182 423.5712 546.3913 436.3982 546.1404 443.6201 546.0814 451.0239 546.6869 458.2032 547.1362 463.6834 546.8389 469.552 547.7618 474.9474 548.5859 479.7578 549.9283 484.2337 551.5824 488.7505ZM571.9686 466.7635C573.4826 483.2155 576.0839 499.7358 582.751 514.7529 572.7438 510.863 566.0643 497.6033 561.9929 487.9556 557.9218 478.2521 555.8848 467.5864 555.3706 456.9911 554.6072 440.8047 556.069 424.5265 554.6979 408.3333 553.4677 393.9449 551.4894 379.5287 548.1366 365.5103 546.8187 359.9408 545.4094 353.5132 542.5387 348.584 540.9632 345.8869 538.1614 340.5047 535.6794 338.7345 535.6794 338.7345 544.1967 345.8869 547.8474 351.1086 553.4476 359.0901 557.8143 366.5205 560.7337 376.141 564.9508 389.9993 568.1458 403.4392 568.7391 418.0927 569.3791 434.3219 570.4637 450.591 571.9686 466.7635ZM581.7311 403.5518C587.5092 423.307 597.0878 459.5491 625.7015 507.7395 618.1843 508.938 600.9301 497.0041 596.9438 492.9188 588.7219 484.5127 585.1179 473.9298 582.5812 462.3863 578.9897 446.1576 576.9672 429.7618 574.1408 413.3733 571.7293 399.3817 569.7411 385.0226 565.465 371.4846 563.9102 366.5914 561.888 361.3482 559.389 356.9145 558.3285 355.0119 556.6683 350.9614 554.7268 350.0274L557.7174 350.6615C560.5495 352.5659 562.7704 356.2316 564.6535 359.1317 567.3095 363.2031 569.5628 367.727 571.3809 372.2649 575.4061 382.2897 578.6878 393.1364 581.7311 403.5518ZM570.8407 349.2961C570.8407 349.2961 612.8351 439.3329 642.9186 465.4811 653.2155 474.4321 667.2217 483.4871 680.8048 484.6238 675.5088 485.9906 670.411 488.3944 665.0943 489.8653 657.5428 491.9426 648.5893 491.6228 641.4282 488.2209 624.9708 480.3919 613.6914 460.4063 605.4225 444.2893 597.7276 429.3017 591.0279 414.0215 585.3427 398.0993 568.2594 350.3069 554.1197 343.5026 550.1934 333.22 564.0744 346.0124 570.8401 349.2952 570.8407 349.2961ZM503.9235 307.0046C503.7514 307.1001 503.6136 307.2396 503.4552 307.3513 503.8707 302.0406 504.1335 296.6851 504.33 291.3531 505.3527 291.1303 506.4137 291.0379 507.5271 291.1921 510.4264 291.604 513.0482 293.3388 515.7145 294.4826 519.4052 296.051 523.2986 296.9354 527.0156 298.4287 537.1676 302.4709 546.1727 310.1272 554.0868 317.8497 562.4203 326.0052 568.3708 336.4268 574.74 346.2491 572.9825 344.1583 569.4576 342.9309 566.9858 341.8441 562.2627 339.7388 558.436 336.7054 554.5809 333.2132 549.6327 328.7455 545.9156 322.8625 540.8439 318.5053 538.4268 316.4272 536.2379 313.5419 533.5571 311.98 536.7645 317.4043 542.6294 320.6024 545.2515 326.4659 548.9079 334.6486 552.1757 344.5342 552.649 353.6666 551.4389 352.8023 550.4953 350.5776 549.4102 349.2612 547.8996 347.4201 546.4114 345.5459 544.9825 343.5727 541.6095 338.8748 537.6146 334.9293 534.1952 330.2291 529.2085 323.3492 524.874 316.226 521.5011 308.3766 522.5737 315.5647 526.6979 321.5302 528.6679 328.3892 529.9478 332.8515 530.1176 337.5638 530.2106 342.1786 530.2956 345.5388 531.0933 349.7766 529.8542 352.9837 527.3561 350.5723 525.6981 345.1068 523.9706 342.0113 521.1448 336.9498 519.2802 330.7737 517.494 325.1823 515.3074 318.2675 514.0684 310.8986 511.4727 304.1589 512.4674 307.0446 511.7825 310.2174 512.0804 313.1711 512.6451 318.7967 514.9712 323.9269 515.8681 329.4499 516.3423 332.4192 517.1255 336.1422 516.9149 339.0968 516.7692 341.0561 516.0002 343.2515 515.7023 345.2111 515.2428 348.0338 514.6554 350.8775 514.1214 353.6252 513.4028 349.0937 513.3172 345.2803 511.3675 341.028 509.3572 336.6094 506.7558 332.2514 505.3326 327.5388 503.4557 321.4315 502.6436 313.2612 503.9235 307.0046" fill="#d9a628" fill-rule="evenodd"/>
<path transform="matrix(1,0,0,-1,1,596.4916)" d="M466.8769 176.6044C473.0238 171.3348 474.2365 167.2345 475.2972 162.6625 470.2297 166.9 468.0694 166.4677 466.1521 167.457 473.7546 161.8254 469.7419 153.1945 468.2801 145.4287 465.065 153.5717 453.3707 152.7211 448.2765 158.4085 441.1304 166.3906 441.2412 187.4849 425.5143 180.1449 425.251 180.0252 424.0383 179.5584 423.9329 179.4898L431.102 184.5777C444.416 189.8617 457.1062 184.9949 466.8769 176.6044" fill="#d9a628" fill-rule="evenodd"/>
<path transform="matrix(1,0,0,-1,1,596.4916)" d="M435.5481 186.0557C435.5481 186.0557 435.4367 184.9414 435.6351 184.3977 425.0404 182.723 420.8698 174.6507 421.6997 170.1904 422.4917 165.5614 425.9174 162.3909 428.8671 163.093 431.9059 163.616 432.2217 165.0025 431.8654 166.0776 431.6346 167.1228 430.7783 166.6908 430.0413 166.2299 428.7376 165.2491 426.3321 166.2086 425.8443 168.781 425.5081 171.3348 426.587 173.3417 429.6385 173.8494 432.5315 174.4152 434.9367 171.9882 435.5096 169.2286 436.0564 166.1613 434.1838 162.0485 429.355 161.1887 424.6517 160.2638 420.3819 164.4727 419.4 169.6255 418.5374 174.5821 421.9911 183.5045 435.5481 186.0557" fill="#d9a628" fill-rule="evenodd"/>
<path transform="matrix(1,0,0,-1,1,596.4916)" d="M490.9235 201.7687C490.6664 201.9212 490.4031 202.0748 490.1477 202.242 489.7046 202.523 489.2426 202.8138 488.7955 203.1009 487.5829 203.819 486.8459 204.1744 486.8459 204.1744 486.8459 204.1744 487.0358 204.0823 487.453 203.9434 486.6208 204.4743 485.7849 204.9908 484.9421 205.4985 485.3234 205.1646 482.6225 206.411 481.7398 206.8024 479.7232 207.2333 477.8464 207.6537 476.2647 208.0086 453.6867 213.09 438.4616 205.4299 425.2045 197.7177 424.3034 195.7323 420.262 194.783 419.4666 192.7908 426.3908 201.2247 443.0857 205.6442 454.3852 207.4 475.8361 210.7341 503.0932 196.638 509.1931 173.2861 515.808 147.9654 495.3832 119.7482 470.2496 122.1732 456.9868 123.414 438.5852 131.0117 436.3722 146.935 433.3615 140.3819 443.092 131.0423 447.3292 128.2122 453.8038 123.8956 462.3378 120.5685 469.8675 119.838 482.4703 118.5897 506.4987 124.022 512.0983 156.6051 516.4736 181.6792 499.1125 196.3449 490.9235 201.7687" fill="#d9a628" fill-rule="evenodd"/>
<path transform="matrix(1,0,0,-1,1,596.4916)" d="M504.8263 175.4734C505.6016 190.9913 486.0884 201.6354 474.4794 204.7311 464.4924 207.3875 454.081 205.916 444.456 202.0748 426.8792 195.0636 417.6082 181.6427 417.1992 180.0252 422.8985 187.1782 435.1737 192.1482 445.4646 192.1073 453.3304 192.0926 469.3876 185.2892 472.8861 174.8475 477.3523 186.4738 471.4628 191.3533 466.9217 194.7206 466.6725 195.4664 478.7813 193.549 480.6986 186.9772 482.2804 198.7722 465.1965 203.512 459.4912 201.657 467.7072 205.2133 480.1725 200.918 485.9626 192.4628 492.4783 182.9322 483.8352 168.6008 476.3906 167.2617 479.9418 165.3534 501.3927 173.327 496.0896 189.0184 500.4043 186.5718 503.2244 182.6685 504.8263 175.4734" fill="#d9a628" fill-rule="evenodd"/>
<path transform="matrix(1,0,0,-1,1,596.4916)" d="M499.6009 189.5967C505.7595 181.7481 510.8856 167.7784 508.0734 156.8965 505.5633 147.1708 494.547 133.4047 476.9048 135.654 483.2419 137.7811 487.6957 139.9771 489.2247 142.9206 484.7562 149.9063 493.4866 151.5643 497.6892 150.8661 494.9626 157.8643 498.8234 159.0789 501.9917 163.9721 505.8669 169.9311 504.8527 184.3977 499.6009 189.5967" fill="#d9a628" fill-rule="evenodd"/>
<path transform="matrix(1,0,0,-1,1,596.4916)" d="M474.4392 134.763C471.475 136.7728 466.0061 137.0633 462.4291 139.8722 458.8656 142.6827 454.4254 146.1042 449.7205 142.9676 442.7838 138.3602 447.3882 127.22 455.11 130.7211 449.358 130.3997 455.4578 138.9875 449.502 141.232 453.6139 145.8468 459.0034 141.177 462.3562 137.8585 459.807 137.8777 458.475 140.2982 455.2336 138.2423 460.5846 138.9195 463.621 125.6179 468.4297 127.334 477.8263 130.7081 483.1223 121.8886 498.888 139.3858 483.736 130.9431 479.6702 131.207 474.4392 134.763" fill="#d9a628" fill-rule="evenodd"/>
<path transform="matrix(1,0,0,-1,1,596.4916)" d="M351.9689 176.6044C345.8361 171.3348 344.6235 167.2345 343.5565 162.6625 348.63 166.9 350.7843 166.4677 352.7076 167.457 345.0969 161.8254 349.1161 153.1945 350.5737 145.4287 353.795 153.5717 365.4808 152.7211 370.5749 158.4085 377.7296 166.3906 377.6185 187.4849 393.3377 180.1449 393.6005 180.0252 394.8131 179.5584 394.9186 179.4898L387.7495 184.5777C374.4417 189.8617 361.7476 184.9949 351.9689 176.6044" fill="#d9a628" fill-rule="evenodd"/>
<path transform="matrix(1,0,0,-1,1,596.4916)" d="M383.3093 186.0557C383.3093 186.0557 383.423 184.9414 383.2243 184.3977 393.8134 182.723 397.9817 174.6507 397.1574 170.1904 396.3685 165.5614 392.9346 162.3909 389.9906 163.093 386.9396 163.616 386.6298 165.0025 386.9926 166.0776 387.2169 167.1228 388.0732 166.6908 388.8043 166.2299 390.1164 165.2491 392.5193 166.2086 393.0077 168.781 393.3434 171.3348 392.2702 173.3417 389.213 173.8494 386.3205 174.4152 383.9227 171.9882 383.3436 169.2286 382.8036 166.1613 384.666 162.0485 389.5027 161.1887 394.2003 160.2638 398.4758 164.4727 399.4577 169.6255 400.3146 174.5821 396.8683 183.5045 383.3093 186.0557" fill="#d9a628" fill-rule="evenodd"/>
<path transform="matrix(1,0,0,-1,1,596.4916)" d="M327.9285 201.7687C328.1919 201.9212 328.4484 202.0748 328.7055 202.242 329.1474 202.523 329.6089 202.8138 330.0625 203.1009 331.2751 203.819 332.0062 204.1744 332.0062 204.1744 332.0062 204.1744 331.8157 204.0823 331.4007 203.9434 332.2307 204.4743 333.0748 204.9908 333.9111 205.4985 333.5281 205.1646 336.2295 206.411 337.1122 206.8024 339.1288 207.2333 341.0073 207.6537 342.5868 208.0086 365.1653 213.09 380.3922 205.4299 393.647 197.7177 394.5504 195.7323 398.5815 194.783 399.3849 192.7908 392.4669 201.2247 375.7657 205.6442 364.4748 207.4 343.0159 210.7341 315.7526 196.638 309.6584 173.2861 303.0503 147.9654 323.4603 119.7482 348.5954 122.1732 361.8709 123.414 380.2663 131.0117 382.4793 146.935 385.4982 140.3819 375.7595 131.0423 371.524 128.2122 365.0477 123.8956 356.5159 120.5685 348.9783 119.838 336.3812 118.5897 312.3533 124.022 306.7588 156.6051 302.3779 181.6792 319.739 196.3449 327.9285 201.7687" fill="#d9a628" fill-rule="evenodd"/>
<path transform="matrix(1,0,0,-1,1,596.4916)" d="M314.0337 175.4734C313.2505 190.9913 332.763 201.6354 344.372 204.7311 354.3534 207.3875 364.7761 205.916 374.3889 202.0748 391.981 195.0636 401.2492 181.6427 401.6582 180.0252 395.9592 187.1782 383.6801 192.1482 373.3886 192.1073 365.5216 192.0926 349.4662 185.2892 345.9594 174.8475 341.5014 186.4738 347.3909 191.3533 351.9298 194.7206 352.1812 195.4664 340.0702 193.549 338.1608 186.9772 336.5739 198.7722 353.6572 203.512 359.3602 201.657 351.1383 205.2133 338.6812 200.918 332.8889 192.4628 326.3797 182.9322 335.0163 168.6008 342.4632 167.2617 338.9102 165.3534 317.4593 173.327 322.7553 189.0184 318.4472 186.5718 315.635 182.6685 314.0337 175.4734" fill="#d9a628" fill-rule="evenodd"/>
<path transform="matrix(1,0,0,-1,1,596.4916)" d="M319.2511 189.5967C313.0903 181.7481 307.9596 167.7784 310.7781 156.8965 313.2887 147.1708 324.3107 133.4047 341.9549 135.654 335.6096 137.7811 331.1493 139.9771 329.6268 142.9206 334.0959 149.9063 325.3592 151.5643 321.1622 150.8661 323.8957 157.8643 320.0281 159.0789 316.8598 163.9721 312.9868 169.9311 314.0011 184.3977 319.2511 189.5967" fill="#d9a628" fill-rule="evenodd"/>
<path transform="matrix(1,0,0,-1,1,596.4916)" d="M344.4129 134.763C347.3708 136.7728 352.8451 137.0633 356.423 139.8722 359.9881 142.6827 364.4277 146.1042 369.131 142.9676 376.0693 138.3602 371.4639 127.22 363.7355 130.7211 369.4935 130.3997 363.3936 138.9875 369.3557 141.232 365.2381 145.8468 359.8421 141.177 356.5015 137.8585 359.0444 137.8777 360.383 140.2982 363.6122 138.2423 358.2731 138.9195 355.2304 125.6179 350.4197 127.334 341.032 130.7081 335.7292 121.8886 319.9575 139.3858 335.1161 130.9431 339.1812 131.207 344.4129 134.763" fill="#d9a628" fill-rule="evenodd"/>
<path transform="matrix(1,0,0,-1,1,596.4916)" d="M303.1897 263.867C289.7283 278.6669 278.4832 278.8401 272.5795 273.7165 266.6758 268.5926 268.079 263.8242 268.079 263.8242 268.079 263.8242 270.9519 276.9361 282.7916 274.5045 294.6382 272.0503 293.7934 263.359 297.4825 256.9088 301.7137 249.5052 308.0307 256.9428 320.826 236.4849 320.826 236.4857 316.6492 249.0746 303.1897 263.867" fill="#d9a628" fill-rule="evenodd"/>
<path transform="matrix(1,0,0,-1,1,596.4916)" d="M312.4641 210.5388C312.4641 210.5388 310.1403 206.7602 308.5529 203.7628 306.9575 200.7507 301.7378 203.6305 297.1018 197.8376 297.1018 197.8379 297.432 205.3244 303.9934 208.8592 310.549 212.3986 312.4641 210.5388 312.4641 210.5388ZM314.5215 217.6897C318.9878 218.5274 321.0165 215.9884 324.161 213.1245 327.388 210.1748 332.9209 206.7602 337.2171 208.0993 342.9632 209.899 347.0992 213.9321 353.1489 208.7113 356.7529 209.2212 377.7562 205.7017 393.3513 196.6229 397.3762 194.5193 401.0329 191.9129 404.0756 188.6068 402.0205 191.8358 396.3419 200.3681 375.9236 207.0258 371.7675 208.3771 359.348 213.2147 354.1107 215.4467 329.3983 226.0142 319.4555 248.0012 319.4555 248.0012 324.5088 260.339 312.8003 261.4757 312.8003 261.4757 319.2449 271.3105 314.3758 275.7725 304.4611 280.6937 301.9629 281.9339 293.6032 289.5814 287.6267 292.8657 280.7169 296.6715 275.6894 298.679 271.8689 297.1604 276.882 295.6462 285.0046 292.6148 291.4489 286.0466 293.472 283.9774 295.7899 279.0349 296.1927 277.4115 296.0734 277.5144 295.9478 277.6343 295.8245 277.7323 289.3921 284.6823 281.4474 290.6785 275.1024 292.9768 268.014 295.5492 263.3292 285.0659 256.6157 289.5746 259.6731 284.6477 262.9281 286.9682 266.328 285.2802 259.863 283.1272 249.8695 280.5412 247.1686 289.4766 256.4637 288.419 253.5259 303.9917 260.9906 299.6841 252.8218 309.5614 239.961 297.8286 246.4095 286.9892 250.7848 279.648 258.7697 281.2161 265.2083 282.5487 269.3707 283.3994 273.1263 283.4419 276.6308 283.0496 257.4014 282.0192 238.1349 264.9121 237.8721 241.5858 237.7528 230.6288 243.5709 217.1883 254.2428 213.2147 254.6864 212.9083 255.1459 212.6356 255.6476 212.4281 263.5863 209.1572 272.9806 210.907 279.5363 217.2036 283.6684 221.1968 287.1062 227.8817 284.7818 234.2316 284.8082 234.2401 284.8266 234.2316 284.8266 234.2316 283.2718 239.1205 280.1418 239.9213 278.5544 239.3425 276.9004 238.7083 275.7481 236.903 276.2887 235.2144 276.8292 233.4796 278.2854 233.013 279.2673 233.3616 280.1557 233.7236 280.8278 234.7262 280.4856 235.7736 280.1619 236.8755 279.4371 237.1813 278.6153 236.9154 277.797 236.596 277.6068 235.662 277.9954 235.2297 278.1859 234.9791 278.3701 234.6857 278.0402 234.546 277.6975 234.3518 277.232 234.4011 276.8941 235.5021 276.5055 236.5534 277.3763 237.9892 278.8642 238.5196 279.7815 238.8674 281.3017 238.5071 282.5671 237.2029 285.1688 232.1623 278.5683 231.0525 276.3677 228.0773 274.7602 225.9026 275.6489 221.6288 273.1408 220.0178 275.7745 219.8721 278.8316 218.8483 280.2875 221.9485 279.7671 220.1788 278.384 218.4928 276.8678 217.3484L276.9004 217.495C276.882 217.4264 276.8556 217.383 276.8355 217.3275 276.4001 217.0069 275.9666 216.7143 275.5253 216.4983 272.8227 215.1252 271.1098 216.3591 268.6275 217.5931 266.091 218.8613 262.2682 219.371 259.4889 218.3386 257.5777 217.6211 255.7003 216.087 253.6637 215.4189 243.4195 219.2596 239.4853 231.1228 239.5845 241.4052 239.828 267.6586 268.3361 288.2234 290.611 278.8532 281.3017 282.1995 270.7741 280.9738 265.773 269.8047 258.7232 254.1711 281.5852 239.6214 288.6953 255.0963 290.1314 258.2331 290.4406 264.7298 284.7682 267.5469 279.1678 270.2934 275.4788 268.725 273.4685 264.4172 271.2617 259.7111 276.0843 256.9646 276.0843 256.9646 276.0843 256.9646 279.6231 255.4308 281.1237 258.4426 283.2454 262.7232 278.2587 265.2463 278.2587 265.2463 278.2587 265.2463 277.8296 269.3869 283.9842 266.2654 290.3034 263.1623 287.4688 256.0734 287.4688 256.0734 287.4688 256.0737 283.5227 246.9475 273.6729 251.9453 262.406 257.5086 267.8885 269.5411 267.8885 269.5411 280.4856 289.0587 302.9649 274.5176 319.9759 240.4375 321.802 236.7694 323.9745 233.3469 326.4197 230.118 323.5147 232.9846 320.4437 235.3411 317.7567 236.5688 313.1895 238.6596 309.5734 231.9823 305.3557 235.3411 307.1418 231.9111 309.4013 233.263 311.5695 231.9673 307.1945 230.8944 300.4546 229.7373 299.1042 235.7867 305.2043 234.5871 304.014 245.0452 308.7493 241.789 303.8219 248.7688 294.7431 241.7204 298.4907 234.184 301.0215 229.0946 306.3722 229.6874 310.693 230.2104 315.0334 230.7402 318.6312 230.0284 321.9335 228.9555 325.292 227.8885 328.8112 226.2087 332.1255 223.4066 332.1456 223.3794 332.1777 223.3579 332.1961 223.3363 323.7701 229.1372 312.8675 231.018 302.8861 228.1754 291.5929 224.9413 288.161 219.5169 282.5816 209.7009 278.8438 203.1075 268.079 194.449 256.8464 200.4857 268.5529 193.1315 281.6172 193.8773 283.9439 204.8366 292.036 199.0091 293.9774 210.3287 293.1942 215.7809 301.2987 212.2058 302.7078 217.2308 308.4009 221.3164 314.3758 225.6248 323.7701 227.4559 336.0189 218.8329 327.3029 222.8219 317.4531 223.1906 308.4072 218.3749 300.8231 214.346 293.2407 206.0765 294.188 195.8 294.156 195.8 294.1234 195.8153 294.1234 195.8153 294.5123 188.022 298.7535 185.512 301.3047 185.6662 303.9593 185.8759 306.3521 187.9943 306.2007 190.6999 306.0748 193.4745 304.143 194.7915 302.5701 194.6934 301.1329 194.5477 299.77 193.3603 299.8613 191.6898 299.922 189.9394 300.8633 189.2066 302.1613 189.235 303.4791 189.3399 304.111 190.6291 303.7099 191.4236 303.5262 191.8636 303.3677 192.3857 303.9066 192.4415 304.4673 192.5804 305.1456 192.3024 305.1981 190.5457 305.3701 188.8515 303.552 187.1286 301.1794 186.9897 299.6833 186.8786 297.5754 188.0629 296.2312 190.5738 294.4069 199.0227 304.4874 197.7673 308.8341 201.1535 312.0114 203.6367 312.3615 210.2669 316.6554 211.5281 312.8533 212.868 308.7814 215.697 305.4694 211.792 307.334 214.8194 311.2274 217.0851 314.5215 217.6897" fill="#d9a628" fill-rule="evenodd"/>
<path transform="matrix(1,0,0,-1,1,596.4916)" d="M267.1172 239.1052C267.3014 236.4018 265.0096 234.1562 258.9883 239.0366 252.9451 243.9145 253.0908 252.7418 253.0908 252.7418 255.964 242.1298 266.9329 241.8038 267.1172 239.1052ZM255.7715 238.2143C262.4403 231.5217 266.6877 233.2225 268.2632 236.1487 270.2534 239.8442 267.2629 244.1115 261.4646 247.7917 249.9406 255.0966 257.8343 264.6612 258.8751 268.05 258.8751 268.0509 242.3727 251.6664 255.7715 238.2143" fill="#d9a628" fill-rule="evenodd"/>
<path transform="matrix(1,0,0,-1,1,596.4916)" d="M279.3844 245.2C279.3844 245.2 273.687 239.6636 268.7919 248.169 268.7919 248.169 273.8571 243.3076 279.3844 245.2ZM273.0087 242.3333C277.4548 241.1765 279.8198 242.6613 282.3364 246.7182 282.3364 246.7182 275.0559 245.3369 270.2069 248.781 263.1331 253.8128 257.8405 265.3362 269.6278 277.8783 269.6278 277.8792 252.1352 270.1114 245.8304 257.7589 239.5117 245.4225 240.0724 234.8033 243.7815 228.4478 248.8354 219.8083 256.2996 218.3046 260.3387 223.4752 260.3387 223.4764 255.1861 222.7448 252.8481 228.803 252.8481 228.8032 248.3206 225.9303 244.9539 231.012 241.5932 236.1087 241.4435 241.9903 244.6322 252.0845 248.7362 265.1287 259.7516 270.2925 262.8615 272.0001 262.8615 272.0001 256.3787 261.1196 265.9915 250.0835 265.9915 250.0841 268.9231 243.3915 273.0087 242.3333" fill="#d9a628" fill-rule="evenodd"/>
<path transform="matrix(1,0,0,-1,1,596.4916)" d="M539.8092 245.2C545.3308 243.3076 550.404 248.169 550.404 248.169 545.5086 239.6645 539.8092 245.1994 539.8092 245.2ZM575.4061 228.4478C579.1212 234.8033 579.668 245.4225 573.3655 257.7589 567.0587 270.1114 549.5598 277.8783 549.5598 277.8783 561.3537 265.3364 556.0628 253.8128 548.987 248.781 544.1318 245.3369 536.8575 246.7182 536.8575 246.7182 539.3758 242.6613 541.7328 241.1765 546.1869 242.3333 550.2645 243.3915 553.1978 250.0835 553.1978 250.0835 562.8027 261.1196 556.3199 272.0001 556.3199 272.0001 559.4298 270.2934 570.4597 265.1284 574.5637 252.0845 577.7442 241.9909 577.6007 236.1076 574.2337 231.012 570.873 225.9303 566.3477 228.803 566.3477 228.803 564.0015 222.7448 558.8507 223.4752 558.8507 223.4752 562.8883 218.3049 570.3525 219.8081 575.4061 228.4478" fill="#d9a628" fill-rule="evenodd"/>
<path transform="matrix(1,0,0,-1,1,596.4916)" d="M522.0938 197.8379C517.4476 203.6305 512.2383 200.7507 510.6427 203.7628 509.0553 206.7602 506.7295 210.5388 506.7295 210.5388 506.7295 210.5388 508.6406 212.3986 515.2025 208.8592 521.7503 205.3244 522.0938 197.8376 522.0938 197.8379ZM542.5571 283.0501C546.0613 283.4419 549.8169 283.3988 553.9819 282.5487 560.4117 281.2161 568.3966 279.648 572.7719 286.9892 579.2346 297.8286 566.3741 309.5614 558.197 299.6841 565.6677 303.9925 562.7177 288.4184 572.027 289.4766 569.3199 280.5418 559.3184 283.127 552.8679 285.2802 556.2612 286.9682 559.5148 284.6477 562.572 289.5746 555.8664 285.0659 551.1818 295.5492 544.0791 292.9768 537.7467 290.6785 529.7958 284.6823 523.3714 277.7323 523.2402 277.6343 523.1205 277.5144 523.0029 277.4115 523.9585 281.2932 528.1475 293.8768 539.6105 299.431 539.6111 299.4316 532.0488 297.1885 526.7058 292.8657 521.8753 288.9476 519.4843 283.0649 514.7286 280.6937 504.8184 275.7725 499.9487 271.3105 506.3873 261.4757 506.3873 261.4765 494.6786 260.3384 499.7381 248.0012 499.7387 248.0017 489.7976 226.0137 465.0851 215.4467 459.8396 213.215 447.4267 208.3771 443.27 207.0258 420.9106 199.7334 416.2051 190.1815 414.6097 187.8188 428.466 203.4825 461.4344 209.3669 466.039 208.7113 472.0884 213.9321 476.2327 209.8981 481.9706 208.0993 486.2605 206.7602 491.8062 210.1748 495.0213 213.1245 498.1714 215.9887 500.2002 218.5274 504.6661 217.6892 507.9603 217.0851 511.8554 214.8188 513.72 211.792 510.4063 215.697 506.3409 212.8669 502.5382 211.5281 506.8349 210.2669 507.1708 203.6367 510.3592 201.1535 514.7084 197.7673 524.7867 199.0222 522.9629 190.5738 521.6182 188.0629 519.5044 186.8783 518.0145 186.9897 515.6439 187.1286 513.8257 188.8512 513.9893 190.5457 514.042 192.3024 514.7203 192.5804 515.2876 192.4415 515.8216 192.3857 515.664 191.863 515.4715 191.4236 515.0767 190.6294 515.7105 189.3399 517.0263 189.235 518.3303 189.2066 519.2736 189.9394 519.3323 191.6898 519.4196 193.3611 518.0491 194.5477 516.6258 194.6934 515.0446 194.7915 513.1128 193.4736 512.9952 190.6999 512.8438 187.9946 515.2283 185.8754 517.8827 185.6662 520.4279 185.512 524.6753 188.022 525.0719 195.8153 525.0719 195.8153 525.0317 195.8 525.0053 195.8 525.9407 206.0765 518.3583 214.346 510.7805 218.3749 501.7428 223.1906 491.8847 222.8219 483.1625 218.8329 495.4096 227.4559 504.8056 225.6242 510.787 221.3164 516.4736 217.2314 517.8906 212.2053 526.0017 215.7809 525.2159 210.3287 527.1534 199.0091 535.25 204.8366 537.5682 193.8773 550.641 193.1315 562.3413 200.4857 551.1152 194.449 540.3498 203.1075 536.6004 209.7009 531.0204 219.5169 527.5947 224.9408 516.3077 228.1754 506.3287 231.0188 495.4096 229.1372 486.9893 223.3363 487.0179 223.3579 487.0358 223.3789 487.0644 223.4066 490.3846 226.2093 493.8951 227.8885 497.2541 228.9555 500.5565 230.0287 504.1542 230.7402 508.4884 230.2104 512.8174 229.6879 518.1724 229.0944 520.6969 234.184 524.4446 241.7204 515.3661 248.7679 510.4386 241.789 515.1679 245.0458 513.9893 234.5868 520.0835 235.7867 518.7331 229.7373 511.9931 230.8944 507.6241 231.9673 509.7801 233.2636 512.0518 231.9111 513.8314 235.3411 509.6143 231.9823 505.9925 238.6596 501.4392 236.5688 498.7502 235.3414 495.6749 232.9846 492.7674 230.118 495.2134 233.3475 497.3879 236.7694 499.206 240.4375 516.223 274.5179 538.6958 289.0587 551.2989 269.5411 551.2995 269.5411 556.7876 257.5086 545.5208 251.9453 535.6715 246.9475 531.7189 256.0734 531.7189 256.0734 531.7189 256.0737 528.8868 263.1623 535.2029 266.2654 541.3581 269.3869 540.9369 265.2463 540.9369 265.2463 540.9369 265.2463 535.9484 262.7223 538.0639 258.4426 539.5666 255.4308 543.109 256.9646 543.109 256.9646 543.1096 256.9646 547.926 259.7102 545.7192 264.4172 543.7106 268.7253 540.0198 270.2925 534.4277 267.5469 528.753 264.7307 529.0566 258.2323 530.4943 255.0963 537.6025 239.6214 560.4647 254.1708 553.4147 269.8047 548.42 280.9738 537.8859 282.1995 528.5767 278.8532 550.8454 288.2234 579.3599 267.6577 579.6088 241.4052 579.7083 231.1228 575.7627 219.2596 565.53 215.4189 563.4955 216.087 561.6043 217.6206 559.6991 218.3386 556.9132 219.371 553.1049 218.8613 550.554 217.5931 548.0838 216.3591 546.3592 215.1252 543.6641 216.4983 543.2292 216.7143 542.7879 217.0063 542.3522 217.3275 542.34 217.3839 542.3057 217.4255 542.2856 217.4941L542.3258 217.3493C540.7974 218.4928 539.4266 220.1788 538.8945 221.9485 540.356 218.8491 543.4132 219.8721 546.0491 220.0178 543.5391 221.6293 544.4274 225.9026 542.8278 228.0773 540.6276 231.0525 534.0127 232.1623 536.6205 237.2029 537.8797 238.5074 539.4005 238.8674 540.3297 238.5196 541.8116 237.9892 542.6742 236.5534 542.2856 235.5021 541.9573 234.4011 541.4839 234.3509 541.1475 234.546 540.8237 234.6857 540.9961 234.9791 541.1923 235.2297 541.5809 235.6628 541.3844 236.596 540.5749 236.9154 539.7571 237.1813 539.0323 236.8749 538.702 235.7736 538.3602 234.7262 539.0379 233.7236 539.9229 233.3616 540.9088 233.013 542.3601 233.4796 542.899 235.2144 543.4455 236.9032 542.2816 238.7083 540.6333 239.3425 539.0442 239.9213 535.9102 239.1197 534.361 234.2316 534.361 234.2316 534.3874 234.2401 534.3996 234.2316 532.0817 227.8817 535.5272 221.1962 539.6576 217.2036 546.207 210.9076 555.6093 209.1572 563.542 212.4281 564.048 212.6361 564.495 212.908 564.9508 213.2147 575.6168 217.1883 581.4351 230.6282 581.322 241.5858 581.0528 264.9121 561.7945 282.0192 542.5571 283.0501" fill="#d9a628" fill-rule="evenodd"/>
<path transform="matrix(1,0,0,-1,1,596.4916)" d="M566.0969 252.7427C566.0969 252.7427 566.2426 243.9139 560.2076 239.0366 554.1843 234.1568 551.886 236.4018 552.0764 239.1052 552.255 241.8041 563.2177 242.1298 566.0969 252.7427ZM557.7231 247.7917C551.9248 244.1115 548.9342 239.8442 550.9247 236.1487 552.5056 233.2225 556.753 231.5217 563.4099 238.214 576.8232 251.6669 560.3125 268.05 560.3125 268.05 561.3537 264.6621 569.2453 255.0963 557.7231 247.7917" fill="#d9a628" fill-rule="evenodd"/>
<path transform="matrix(1,0,0,-1,1,596.4916)" d="M536.3898 274.5054C548.2358 276.9361 551.1087 263.8242 551.1087 263.8242 551.1087 263.8242 552.5121 268.5917 546.6163 273.7165 540.7126 278.841 529.4656 278.6669 516.0002 263.8664 502.5387 249.0755 498.3698 236.4849 498.3698 236.4849 511.1634 256.9431 517.4821 249.5052 521.7111 256.9088 525.4002 263.359 524.5577 272.0494 536.3898 274.5054" fill="#d9a628" fill-rule="evenodd"/>
<path transform="matrix(1,0,0,-1,1,596.4916)" d="M405.756 169.5501C405.756 169.5501 400.9192 161.9921 391.9017 157.6137 387.6262 155.5509 384.5809 150.5041 376.63 154.1713 399.8934 137.9699 406.586 168.62 406.586 168.62 406.5866 168.62 398.101 153.222 391.3146 153.3076 391.3152 153.3076 398.8259 155.9965 405.756 169.5501" fill="#d9a628" fill-rule="evenodd"/>
<path transform="matrix(1,0,0,-1,1,596.4916)" d="M408.4512 167.7438C407.6799 166.1185 400.7957 147.2134 409.4243 122.9406 419.4 159.6081 409.1289 167.834 409.1289 167.834 409.1295 167.8343 410.1574 145.9726 409.4388 138.5144 408.7749 147.3953 408.3919 166.0714 408.4512 167.7438" fill="#d9a628" fill-rule="evenodd"/>
<path transform="matrix(1,0,0,-1,1,596.4916)" d="M426.873 153.739C420.0664 153.6551 411.6132 169.0617 411.6132 169.0617 411.6132 169.0617 418.2602 138.4089 441.5511 154.5738 433.5928 150.9216 430.5614 155.971 426.2794 158.053 417.2664 162.4226 412.4432 169.9875 412.4432 169.9875 419.3473 156.4311 426.873 153.739 426.873 153.739" fill="#d9a628" fill-rule="evenodd"/>
<path transform="matrix(1,0,0,-1,1,596.4916)" d="M423.7364 149.7302C420.6328 149.2206 417.1405 153.8838 415.6846 156.054 415.2696 156.6794 415.0188 157.106 415.0188 157.106 421.9166 143.7369 418.1426 142.4599 415.2898 156.0387 414.2092 161.204 414.7291 144.0346 414.7291 144.0346 414.7291 144.0346 418.5111 137.7471 422.8603 136.6588 425.4761 140.1999 424.8969 146.5021 423.7364 149.7302" fill="#d9a628" fill-rule="evenodd"/>
<path transform="matrix(1,0,0,-1,1,596.4916)" d="M396.1049 136.6243C400.46 137.7196 404.2151 144.0346 404.2151 144.0346 404.2157 144.0346 402.5874 150.7329 403.6017 155.8721 401.8748 150.2683 399.1479 144.2662 399.2593 144.6489 399.2598 144.6489 400.7877 151.6476 403.3446 156.1912 401.9885 154.1134 398.3907 149.1795 395.2023 149.688 394.0481 146.4591 393.4811 140.1591 396.1049 136.6243" fill="#d9a628" fill-rule="evenodd"/>
<path transform="matrix(1,0,0,-1,1,596.4916)" d="M313.6654 277.9563C313.6654 277.9563 320.8323 288.9062 292.9635 295.4721 292.9635 295.4721 301.4039 284.862 313.6654 277.9563" fill="#d9a628" fill-rule="evenodd"/>
<path transform="matrix(1,0,0,-1,1,596.4916)" d="M515.486 283.7611C512.3616 281.1044 507.217 279.4382 503.0138 277.0688 503.0144 277.0693 495.851 288.0196 523.7135 294.5942 523.7141 294.5942 521.4665 288.8725 515.486 283.7611" fill="#d9a628" fill-rule="evenodd"/>
<path transform="matrix(1,0,0,-1,1,596.4916)" d="M415.8831 178.2196C415.8831 182.1246 412.8908 185.2892 409.1961 185.2892 405.5051 185.2892 402.5083 182.1246 402.5083 178.2196 402.5089 174.3103 405.5051 171.1375 409.1961 171.1375 412.8908 171.1375 415.8831 174.3103 415.8831 178.2196" fill="#d9a628" fill-rule="evenodd"/>
<path transform="matrix(1,0,0,-1,1,596.4916)" d="M499.0017 184.955C499.0017 184.955 501.5563 177.4244 492.656 170.3509 489.6924 167.9933 485.4484 165.6853 479.4214 163.728 479.4214 163.728 484.4928 158.7705 479.302 151.0889 477.4637 148.3855 470.1302 144.2356 471.2964 140.7285 473.3334 134.6644 480.7315 138.3318 485.627 143.2548 485.627 143.2548 480.6139 154.8825 493.7437 155.1331 493.7437 155.1331 493.7437 162.9672 500.4371 168.0287 505.9582 172.1982 499.0011 184.9544 499.0017 184.955" fill="#d9a628" fill-rule="evenodd"/>
<path transform="matrix(1,0,0,-1,1,596.4916)" d="M320.2795 184.955C320.2795 184.955 317.7366 177.4244 326.6303 170.3509 329.6027 167.9933 333.8382 165.6853 339.8715 163.728 339.8715 163.728 334.7935 158.7705 339.9908 151.0889 341.8155 148.3855 349.1626 144.2356 347.9899 140.7285 345.9594 134.6644 338.5556 138.3318 333.6602 143.2548 333.6602 143.2548 338.675 154.8825 325.5372 155.1331 325.5378 155.1331 325.5372 162.9672 318.85 168.0287 313.329 172.1982 320.2795 184.9544 320.2795 184.955" fill="#d9a628" fill-rule="evenodd"/>
<path transform="matrix(1,0,0,-1,1,596.4916)" d="M518.4295 245.6093C513.0136 247.3926 508.3954 244.1455 503.4614 238.7001 503.4614 238.7001 507.1243 249.1432 516.5184 250.9982 525.9144 252.8515 534.8954 249.0809 534.189 240.3882 533.5577 232.4684 530.7712 225.4697 533.7941 220.9241 536.8192 216.3813 543.907 209.2127 553.9354 206.0203 553.9354 206.0212 538.8863 208.1265 531.4034 221.0936 528.8666 225.4978 531.3362 235.1869 531.646 237.7749 521.6125 234.8249 523.8391 243.8237 518.4295 245.6093" fill="#d9a628" fill-rule="evenodd"/>
<path transform="matrix(1,0,0,-1,1,596.4916)" d="M300.6853 245.6093C306.1012 247.3926 310.7132 244.1455 315.6551 238.7001 315.6557 238.7001 311.9907 249.1432 302.5964 250.9982 293.2004 252.8515 284.2274 249.0809 284.9258 240.3882 285.5594 232.4684 288.3453 225.4697 285.3224 220.9241 282.2981 216.3813 275.2075 209.2127 265.1797 206.0203 265.1797 206.0212 280.2285 208.1265 287.7134 221.0936 290.2507 225.4978 287.7783 235.1869 287.4688 237.7749 297.5026 234.8249 295.2774 243.8237 300.6853 245.6093" fill="#d9a628" fill-rule="evenodd"/>
<path transform="matrix(1,0,0,-1,1,596.4916)" d="M370.8414 433.1475C372.4432 437.3654 374.6401 440.6856 375.9355 444.1521 379.1959 452.8755 383.7736 458.8869 391.7273 457.9084 393.658 457.6711 395.7837 456.8233 398.1421 455.7325 400.3659 454.7055 403.842 455.6347 406.0208 456.3958 406.2107 456.4619 406.0208 456.7252 406.0208 456.9049 409.568 457.2298 412.9869 457.2096 416.3003 456.9049V456.4624C418.2917 455.5735 420.6654 454.7494 423.5156 455.5602 425.4466 456.1101 427.263 457.1884 429.2546 457.6765 431.1215 458.1346 432.9811 458.0405 434.7145 457.668 436.062 457.3783 437.1999 456.8624 438.4054 456.0055 443.0991 453.1096 446.2892 444.3579 451.478 433.1483L448.6411 434.9452C448.8627 432.2517 448.6028 429.6246 447.912 427.066 516.9651 406.2861 553.5014 362.6277 559.0307 323.4628 560.975 309.6927 557.8401 295.9515 552.4911 284.2089 538.181 252.794 503.2502 237.1884 469.565 225.0513 451.326 218.4795 440.7032 206.1434 432.222 190.9655 427.9972 183.4047 426.2848 174.5135 423.8555 165.649 422.9498 162.3441 422.1153 159.1214 421.253 155.8854 416.4265 178.2816 414.1338 198.0561 423.7002 217.3357L420.1089 213.1804C426.1626 235.9236 434.5291 257.5089 439.3477 279.3631 442.9817 295.8452 442.4374 312.9551 440.4994 329.6517 439.9889 334.0497 438.9214 338.3753 437.8966 342.4966 435.2091 354.9563 431.5805 364.7871 428.1157 372.6003 426.2871 371.8315 423.8538 370.9794 421.897 371.2836 417.2672 372.0039 416.1566 373.1805 412.736 373.2517 410.4825 373.2987 408.4013 373.0331 406.4811 372.437 405.4042 372.1025 404.5742 371.6002 403.3057 371.2201 400.5901 370.4066 396.3436 371.8035 394.1113 372.8092 382.83 347.1083 376.6167 317.2918 381.93 285.6266 386.1014 260.7647 396.2721 236.1404 403.5404 212.0034L400.3946 215.0762C403.8837 208.8592 405.8118 199.044 405.3061 188.0541 404.7681 176.3552 400.974 163.944 398.7907 154.3311 394.1215 183.8591 389.992 196.8449 379.4397 206.0977 372.9172 211.8178 363.8599 218.4449 355.0612 222.9344 334.2209 233.568 311.379 240.7357 298.006 252.2568 286.664 262.0273 277.8693 271.6696 272.2907 281.5311 264.6456 295.0452 262.4732 308.8531 262.8904 322.852 263.6561 348.5477 278.3154 377.7812 321.4049 404.2466 335.7782 413.0751 351.9349 421.9625 375.1098 427.9487 373.8745 430.7933 373.9595 433.192 374.1593 435.2479Z" fill-rule="evenodd"/>
<path transform="matrix(1,0,0,-1,1,596.4916)" d="M389.3199 374.2308C379.7929 374.2308 371.0812 374.2308 361.5548 374.2308 355.4067 370.0287 349.7777 365.7243 345.4061 361.319 358.4058 361.319 370.9613 361.319 383.961 361.319 385.7471 365.6225 387.5335 369.9266 389.3199 374.2308ZM430.8296 432.5054C418.0975 428.5701 405.8518 428.3167 390.9509 432.5054 391.3169 418.1207 393.6538 404.7792 403.0946 391.3322 397.5732 406.5695 393.641 415.9225 395.716 426.6536 406.258 423.8342 417.2882 424.9304 425.4772 426.6536 427.163 415.9074 425.0786 405.8436 418.4799 391.2406 428.8003 403.9948 429.2461 418.6046 430.8296 432.5054ZM380.6969 445.0453C383.2092 450.4303 386.8722 456.6722 396.049 451.514 402.3468 449.5314 405.0411 452.2598 409.9745 452.562V452.573C410.2268 452.5852 410.472 452.5894 410.7124 452.5883 410.7393 452.5883 410.7674 452.5883 410.7943 452.5883 411.035 452.5894 411.2807 452.5852 411.533 452.573V452.562C416.4659 452.2598 419.1605 449.5317 425.4585 451.514 434.6348 456.6722 438.298 450.4303 440.8101 445.0453 434.5172 448.9991 434.5739 449.3985 431.2814 446.4703 430.3993 443.1813 421.8809 443.5954 419.8073 441.5122 426.1099 440.9901 437.6188 439.3242 433.6637 445.3744 439.9262 443.6807 441.2055 441.4167 443.2034 436.695 445.2287 433.9993 443.183 427.3271 441.8887 423.3328 443.1146 423.0079 448.664 422.6672 449.8877 422.3109 536.684 397.0511 616.6774 294.0242 487.351 237.7687 458.142 228.6694 431.8376 215.2162 421.8732 178.1237 416.4942 210.4586 434.6688 241.5937 481.5751 268.9172 541.5489 327.3401 482.2047 375.6059 441.1996 385.3939 437.5658 386.261 436.8118 385.8072 436.5405 390.0855 436.1754 395.8478 438.5574 402.3105 438.7314 408.5929 429.1427 397.5503 432.0867 391.0048 427.4898 378.3172 425.27 376.0659 421.528 375.62 418.8946 376.8925 414.3991 379.05 406.6163 378.3206 401.9411 376.1728 399.2312 376.1572 397.1546 376.3559 396.2205 376.9421 391.3325 379.3144 394.4988 395.043 384.0267 408.0903 384.9148 399.0223 387.5332 387.1613 383.3853 386.2199 341.6284 373.0388 279.7526 330.1415 337.8197 272.8936 346.6672 264.7706 351.5394 261.3345 362.2402 255.0784 399.7545 224.284 403.9594 200.0554 398.7876 177.4604 394.0053 203.0428 380.3783 222.1829 324.9845 241.0824 255.0801 276.7283 247.4875 337.864 303.1645 387.5454 325.7008 403.4942 350.3449 417.2624 374.5704 423.4229 375.3516 423.6216 379.7546 424.6886 380.5353 424.8717 378.8612 430.4307 376.592 431.6624 378.8521 437.9607 380.5858 441.8359 382.1689 443.8395 387.8439 445.3744 383.8881 439.3242 395.3976 440.9901 401.7002 441.5122 399.6264 443.5954 391.1083 443.1813 390.2258 446.4703 386.9334 449.3985 386.9898 448.9991 380.6969 445.0453ZM389.4463 436.1397C403.6329 431.5544 416.05 431.3089 431.7245 436.1397 435.7491 432.5114 436.0944 424.6036 434.1671 417.6386 430.6045 410.0094 426.5725 402.8808 423.3464 387.2602 422.5014 383.974 421.4021 381.9044 417.1632 383.7484 412.5713 385.2116 408.4903 385.3868 404.4098 383.7484 399.8086 381.5702 398.7924 383.9165 398.2884 386.909 395.7182 397.7606 392.758 408.3698 387.9156 417.8137 385.7051 423.8427 385.5353 430.4622 389.4463 436.1397ZM432.0074 374.2308C441.5338 374.2308 450.246 374.2308 459.7724 374.2308 465.9202 370.0287 471.5495 365.7243 475.9209 361.319 462.9212 361.319 450.3657 361.319 437.366 361.319 435.5799 365.6225 433.7935 369.9266 432.0074 374.2308ZM432.3617 244.2875H439.7998L428.9882 231.8723ZM439.3672 262.6866C446.546 262.6569 453.725 262.6268 460.9035 262.5973 454.998 258.5174 449.6848 254.2085 444.2975 248.7535 441.0105 248.7535 437.7237 248.7535 434.4372 248.7535 436.0808 253.3978 437.7237 258.0418 439.3672 262.6866ZM443.7782 281.5325C457.2711 281.5325 470.7635 281.5325 484.2561 281.5325 480.7843 276.6708 475.5538 272.0523 469.1203 267.5991 459.5774 267.5991 450.0346 267.5991 440.4917 267.5991 441.6863 272.4729 442.7595 277.0659 443.7782 281.5325ZM445.5082 300.4676C462.8928 300.4676 480.2774 300.4676 497.6623 300.4676 496.0162 295.7488 492.9661 290.92 488.7539 285.9979 473.906 285.9979 459.0584 285.9979 444.2108 285.9979 444.7857 290.9687 445.2182 295.7919 445.5082 300.4676ZM445.7676 319.3132C464.3631 319.343 482.9587 319.3727 501.5546 319.4028 501.7589 314.3707 501.1614 309.3392 499.392 304.3074 481.4595 304.3372 463.5269 304.3672 445.5944 304.397 445.809 309.5816 445.8569 314.5402 445.7676 319.3132ZM443.0863 337.623C460.6727 337.623 478.2594 337.623 495.8459 337.623 498.0631 334.0281 499.8671 329.2588 501.2949 323.422 482.584 323.422 463.873 323.422 445.1624 323.422 445.0547 329.099 444.3069 332.6196 443.0863 337.623ZM438.5889 356.3793C452.8888 356.4091 467.1884 356.4391 481.4887 356.4686 485.6791 352.0604 489.7395 347.4286 493.3378 341.9994 476.2412 341.9994 459.1449 341.9994 442.0485 341.9994 441.3509 347.8745 439.854 351.9893 438.5889 356.3793ZM388.9655 244.2875H381.5271L392.3385 231.8723ZM381.96 262.6866C374.781 262.6569 367.6022 262.6268 360.4235 262.5973 366.3292 258.5174 371.6425 254.2085 377.0297 248.7535 380.3165 248.7535 383.603 248.7535 386.8897 248.7535 385.2465 253.3978 383.603 258.0418 381.96 262.6866ZM377.5484 281.5325C364.0561 281.5325 350.5635 281.5325 337.0708 281.5325 340.543 276.6708 345.7735 272.0523 352.207 267.5991 361.7498 267.5991 371.2927 267.5991 380.8355 267.5991 379.6407 272.4729 378.5675 277.0659 377.5484 281.5325ZM375.8187 300.4676C358.4341 300.4676 341.0493 300.4676 323.6647 300.4676 325.3107 295.7488 328.3608 290.92 332.5734 285.9979 347.421 285.9979 362.2686 285.9979 377.1164 285.9979 376.541 290.9687 376.109 295.7919 375.8187 300.4676ZM375.5597 319.3132C356.9638 319.343 338.368 319.3727 319.7727 319.4028 319.5683 314.3707 320.1659 309.3392 321.935 304.3074 339.8675 304.3372 357.8 304.3672 375.7326 304.397 375.518 309.5816 375.4701 314.5402 375.5597 319.3132ZM378.2407 337.623C360.6542 337.623 343.0675 337.623 325.4811 337.623 323.2638 334.0281 321.4602 329.2588 320.0318 323.422 338.743 323.422 357.4539 323.422 376.1649 323.422 376.2723 329.099 377.0201 332.6196 378.2407 337.623ZM382.7381 356.3793C368.4385 356.4091 354.1385 356.4391 339.8386 356.4686 335.6481 352.0604 331.5872 347.4286 327.9892 341.9994 345.0855 341.9994 362.1824 341.9994 379.2787 341.9994 379.976 347.8745 381.473 351.9893 382.7381 356.3793" fill="#ffffff" fill-rule="evenodd"/>
<path transform="matrix(1,0,0,-1,1,596.4916)" d="M409.3968 197.5017 413.8679 184.0411 427.6463 183.8098 416.6314 175.2588 420.6756 161.6556 409.3968 169.8313 398.1183 161.6556 402.1625 175.2588 391.1477 183.8098 404.9257 184.0411Z" fill="#d9a628" fill-rule="evenodd"/>
<path transform="matrix(1,0,0,-1,1,596.4916)" d="M324.5386 111.6723C327.5861 111.6723 330.6336 111.6723 333.7016 111.6723 334.3238 111.6723 334.7152 111.5779 334.904 111.3917 335.0883 111.2105 335.1943 110.7482 335.1943 109.9939 335.1943 109.3167 335.1404 108.8388 335.0078 108.5717 334.8709 108.2968 334.5534 108.036 334.0335 107.788 333.5791 107.5717 333.286 107.3339 333.1627 107.0867 333.0374 106.8358 332.9762 106.4387 332.9762 105.8678 332.9762 100.6342 332.9762 95.4054 332.9762 90.1766 332.9762 84.9478 332.9762 79.7142 332.9762 74.4854 332.9762 74.0356 333.0386 73.7116 333.142 73.5131 333.2458 73.315 333.5374 73.1398 334.0128 72.9859 334.6569 72.7773 334.9871 72.3909 334.9871 71.8444 334.9871 70.4852 334.9267 69.732 334.842 69.5662 334.76 69.4054 334.4689 69.2736 333.9505 69.1841 330.1157 68.5193 326.2791 67.8404 322.4449 67.1428 321.9463 67.0521 321.6986 67.4572 321.6986 68.3666 321.6986 69.1404 321.7096 69.7173 321.7609 70.1031 321.8131 70.4962 322.132 70.8517 322.7145 71.1913 323.3758 71.5771 323.6888 72.1103 323.6888 72.8019 323.6888 76.6525 323.6888 80.5073 323.6888 84.3625 323.6888 88.2128 323.6888 92.0679 323.6888 95.923 322.901 92.7499 322.111 89.5581 321.3462 86.3456 320.5772 83.1152 319.8121 79.8593 319.045 76.5893 318.0915 76.4493 317.1379 76.3041 316.205 76.1638 315.438 79.1626 314.6479 82.1854 313.9038 85.2282 313.1555 88.2893 312.37 91.381 311.6234 94.4912 311.6234 90.5443 311.6234 86.6021 311.6234 82.6648 311.6234 78.7275 311.6234 74.7853 311.6234 70.848 311.6234 70.079 311.9083 69.5472 312.5356 69.3048 313.2972 69.0106 313.6759 68.3569 313.6759 67.288 313.6759 66.064 313.3026 65.3717 312.5565 65.2224 310.6908 64.8493 308.8242 64.4658 306.9799 64.0857 306.3368 63.9533 306.0264 64.4922 306.0264 65.6963 306.0264 66.543 306.3044 67.2364 306.8138 67.7957 307.2166 68.2379 307.4596 68.5882 307.5605 68.8309 307.6665 69.0863 307.7056 69.4837 307.7056 70.0546 307.7056 75.7091 307.7056 81.3733 307.7056 87.0324 307.7056 92.6872 307.7056 98.3511 307.7056 104.0153 307.7056 104.9584 307.6432 105.6745 307.4984 106.1677 307.3533 106.6612 307.0474 107.0816 306.5652 107.3721 306.0527 107.6811 305.7985 107.9963 305.7985 108.33 305.7985 108.7554 305.8058 109.1809 305.8189 109.607 305.8469 110.5257 305.8926 111.0969 305.9847 111.3239 306.0791 111.5563 306.3163 111.6723 306.6687 111.6723 309.8407 111.6723 313.0123 111.6723 316.205 111.6723 316.8893 108.7603 317.5713 105.8672 318.2573 102.9946 318.9393 100.1404 319.6256 97.3015 320.3306 94.4816 321.0146 97.3837 321.7382 100.277 322.4242 103.1494 323.1062 106.0038 323.8339 108.8427 324.5386 111.6723ZM337.3296 111.6723C341.0402 111.6723 344.7513 111.6723 348.4826 111.6723 348.8559 111.6723 349.1022 111.5932 349.2082 111.4305 349.3094 111.2743 349.3534 110.787 349.3534 109.9794 349.3534 109.1667 349.1104 108.6094 348.6277 108.3492 348.2396 108.1403 347.9839 107.9385 347.8609 107.7202 347.7353 107.4986 347.6741 107.077 347.6741 106.4628 347.6741 101.7952 347.6741 97.1226 347.6741 92.4596 347.6741 87.7969 347.6741 83.1243 347.6741 78.4613 347.6741 77.6923 347.9085 77.1086 348.3584 76.6862 348.7997 76.2718 349.374 76.0972 350.0787 76.1831 350.7214 76.2616 351.2792 76.5961 351.7376 77.1795 352.1911 77.7569 352.4216 78.3694 352.4216 79.0081 352.4216 83.5982 352.4216 88.1935 352.4216 92.7788 352.4216 97.3644 352.4216 101.9597 352.4216 106.5501 352.4216 107.0189 352.381 107.3582 352.2764 107.5462 352.1738 107.7307 351.9479 107.962 351.5715 108.233 350.9739 108.6633 350.6803 109.3116 350.6803 110.2065 350.6803 110.8984 350.769 111.3077 350.9289 111.4546 351.0802 111.5932 351.3229 111.6723 351.6335 111.6723 353.4786 111.6723 355.3237 111.6723 357.1897 111.6723 357.8117 111.6723 358.1223 111.3772 358.1223 110.8018 358.1223 110.4194 358.1223 110.0324 358.1223 109.6503 358.1223 109.1426 358.0758 108.8212 357.9979 108.6732 357.9307 108.5454 357.7516 108.4141 357.4174 108.3008 356.6117 108.0275 356.2152 107.5028 356.2152 106.7049 356.2152 102.2837 356.2152 97.8627 356.2152 93.4464 356.2152 89.0351 356.2152 84.6142 356.2152 80.1978 356.2152 77.6923 355.4408 75.619 353.914 73.9582 352.3728 72.2818 350.2423 71.2514 347.5083 70.8525 344.4378 70.4049 342.0896 70.829 340.4806 72.2361 338.8762 73.639 338.0757 75.9172 338.0757 79.0466 338.0757 83.5982 338.0757 88.145 338.0757 92.6969 338.0757 97.2482 338.0757 101.7952 338.0757 106.3468 338.0757 107.0674 337.6837 107.6083 336.9356 107.9382 336.5436 108.1111 336.3106 108.2653 336.2309 108.4073 336.145 108.5604 336.1272 108.8813 336.1272 109.3697 336.1272 110.376 336.1788 111.0237 336.293 111.2805 336.407 111.5368 336.7491 111.6723 337.3296 111.6723ZM371.7011 82.2197C369.5451 82.0505 367.4098 81.881 365.2744 81.6925 365.171 80.9719 365.0607 80.242 364.9635 79.5158 364.9572 79.4679 364.9496 79.393 364.9221 79.2981 364.784 78.8221 364.7149 78.4227 364.7149 78.0599 364.7149 77.489 365.1035 77.0355 365.8963 76.7344 366.3269 76.5711 366.5795 76.3906 366.6841 76.1831 366.7867 75.9796 366.8502 75.6221 366.8502 75.119 366.8502 74.4758 366.8094 74.0832 366.7258 73.9386 366.6438 73.798 366.4562 73.711 366.1659 73.6775 363.9064 73.4162 361.6464 73.1631 359.3869 72.8892 359.0135 72.8442 358.8273 73.194 358.8273 73.929 358.8273 74.8094 359.1303 75.577 359.7395 76.1831 360.3115 76.7526 360.6389 77.2943 360.7345 77.8666 361.5301 82.62 362.308 87.3666 363.0977 92.0823 363.8835 96.7745 364.6862 101.4531 365.5026 106.1048 365.5774 106.5319 365.6271 106.9078 365.6271 107.2174 365.6271 107.7009 365.2492 108.1179 364.5074 108.504 364.1712 108.6789 363.9892 109.1038 363.9892 109.7521 363.9892 110.6178 364.0504 111.1603 364.155 111.3627 364.2576 111.5614 364.5283 111.6723 364.9635 111.6723 368.2389 111.6723 371.535 111.6723 374.8314 111.6723 375.4324 111.6723 375.853 111.4231 376.096 110.9081 376.3295 110.4126 376.5827 109.313 376.8214 107.619 376.914 106.9625 377.0048 106.3123 377.1116 105.6745 377.8132 101.4996 378.5204 97.34 379.2263 93.1901 379.9298 89.0544 380.6345 84.9231 381.3406 80.8024 381.5461 79.6028 382.0419 78.7076 382.8334 78.1226 383.0366 77.9723 383.1857 77.8564 383.2481 77.76 383.3101 77.6633 383.3518 77.3731 383.3518 76.8699 383.3518 76.1009 383.2934 75.6244 383.1857 75.4526 383.0658 75.2615 382.792 75.1575 382.398 75.1286 378.5837 74.8483 374.7898 74.5245 370.9962 74.1662 370.6438 74.1331 370.4777 74.4129 370.4777 74.9979 370.4777 75.7429 370.5296 76.2165 370.6228 76.4104 370.7164 76.604 370.9488 76.8546 371.3695 77.1409 371.9645 77.5463 372.2817 77.997 372.2817 78.5194 372.2817 79.0563 372.0742 80.2899 371.7011 82.2197ZM368.6122 102.835C368.1147 99.7877 367.6164 96.7306 367.1405 93.6737 366.6628 90.6072 366.1866 87.5259 365.7098 84.4398 367.5963 84.585 369.5034 84.7205 371.4109 84.8608 370.9341 87.8355 370.4564 90.8198 370.0012 93.8092 369.5445 96.8077 369.068 99.8167 368.6122 102.835ZM398.2776 91.8984C398.2776 89.9592 398.2776 88.0143 398.2776 86.0797 398.2776 84.1399 398.2776 82.2002 398.2776 80.2655 398.2776 79.6754 398.7153 79.2626 399.6045 79.0177 399.9798 78.9143 400.2214 78.7887 400.3716 78.6694 400.532 78.5418 400.5998 78.0406 400.5998 77.1457 400.5998 76.5893 400.5329 76.2659 400.3923 76.1445 400.2633 76.0337 399.9776 75.9682 399.5629 75.9557 395.4787 75.833 391.4161 75.6641 387.3526 75.4526 386.7724 75.4226 386.4614 75.6414 386.4614 76.0961 386.4614 76.5312 386.4614 76.962 386.4614 77.3974 386.4614 77.934 386.856 78.334 387.6429 78.5968 388.0579 78.7351 388.3436 78.8998 388.472 79.0707 388.6129 79.2578 388.6795 79.5787 388.6795 80.0623 388.6795 81.9006 388.6795 83.7434 388.6795 85.5816 388.6795 87.4196 388.6795 89.2624 388.6795 91.1055 387.8087 93.7366 386.9365 96.387 386.0881 99.0332 385.2369 101.6881 384.3782 104.3575 383.5176 107.0289 383.2591 107.8305 382.7687 108.3472 382.0663 108.6055 381.6907 108.7438 381.5067 108.9975 381.5067 109.3456 381.5067 109.9165 381.5067 110.4871 381.5067 111.0532 381.5067 111.4642 381.7556 111.6723 382.2531 111.6723 385.8809 111.6723 389.5294 111.6723 393.1781 111.6723 393.4888 111.6723 393.6988 111.5963 393.8 111.4498 393.9058 111.2964 393.9452 110.9081 393.9452 110.2793 393.9452 109.6407 393.925 109.2387 393.8621 109.0698 393.8009 108.9054 393.63 108.7583 393.3646 108.6151 392.9666 108.4005 392.7634 108.1123 392.7634 107.7687 392.7634 107.5751 392.8215 107.3588 392.9085 107.1014 393.4641 105.4531 394.0285 103.7976 394.5668 102.153 395.1065 100.5041 395.6865 98.8588 396.246 97.2145 396.8059 98.8736 397.3657 100.5327 397.9253 102.1867 398.4851 103.841 399.0577 105.4936 399.6459 107.1448 399.6797 107.2397 399.708 107.3721 399.708 107.5609 399.708 108.03 399.3559 108.5097 398.6923 109.0071 398.382 109.2396 398.2156 109.4522 398.2156 109.6407 398.2156 110.0761 398.2156 110.5115 398.2156 110.9418 398.2156 111.4257 398.4644 111.6723 398.9826 111.6723 400.8691 111.6723 402.7555 111.6723 404.6627 111.6723 405.1811 111.6723 405.4507 111.4305 405.4507 110.9469 405.4507 110.4823 405.4507 110.0228 405.4507 109.5633 405.4507 109.3167 405.2704 109.0647 404.8909 108.8328 404.2335 108.4311 403.7607 107.8739 403.5019 107.1303 402.6209 104.5996 401.7597 102.0566 400.8898 99.5264 400.0184 96.9925 399.1484 94.4476 398.2776 91.8984ZM426.5337 109.133C426.1399 109.133 425.7459 109.1353 425.3729 109.1375 424.9791 109.1398 424.6787 108.9255 424.44 108.4847 424.2019 108.0451 423.9527 106.8531 423.6934 104.9148 423.58 104.0669 423.3881 103.5346 423.1338 103.3234 422.8699 103.1043 422.346 103.009 421.579 103.019 420.8536 103.028 420.3828 103.1187 420.1693 103.2752 419.9474 103.4382 419.8377 103.7443 419.8377 104.199 419.8377 104.47 419.8414 104.7356 419.8584 105.0069 419.9655 106.738 420.0826 108.4691 420.19 110.202 420.2274 110.8054 420.3272 111.2122 420.5217 111.3868 420.7419 111.5844 421.2473 111.6723 422.0765 111.6723 428.3578 111.6723 434.66 111.6723 440.9623 111.6723 441.5012 111.6723 441.834 111.6054 441.9573 111.4835 442.0826 111.3591 442.1662 110.9066 442.2268 110.1387 442.353 108.5411 442.5313 106.9478 442.6826 105.3456 442.7178 104.974 442.7243 104.5908 442.7243 104.2038 442.7243 103.7395 442.662 103.3866 442.5378 103.1397 442.4134 102.8934 441.9984 102.7789 441.3146 102.7916 440.4438 102.8078 439.8866 102.8968 439.6354 103.0575 439.3888 103.2157 439.1994 103.7007 439.0342 104.5182 438.7643 105.853 438.446 106.9486 438.122 107.8075 437.8037 108.6511 437.3963 109.0763 436.9198 109.0794 436.6502 109.0811 436.3809 109.0845 436.1318 109.0845 436.1318 104.1749 436.1318 99.2653 436.1318 94.3605 436.1318 89.4509 436.1318 84.5416 436.1318 79.632 436.1318 78.7904 436.5454 78.1778 437.3759 77.7937 437.7268 77.6316 437.963 77.459 438.0809 77.2569 438.1911 77.0675 438.2464 76.6621 438.2464 76.0575 438.2464 75.2978 438.1671 74.848 438.0185 74.7369 437.8561 74.6161 437.5006 74.5897 436.9612 74.6306 433.1682 74.9186 429.3737 75.1694 425.5801 75.3948 425.145 75.4206 424.8615 75.5169 424.7303 75.6706 424.5922 75.8316 424.5228 76.2605 424.5228 76.962 424.5228 77.7988 424.8125 78.2994 425.3312 78.4517 425.8488 78.6039 426.1932 78.7683 426.3262 78.9307 426.4628 79.0974 426.5337 79.3902 426.5337 79.806 426.5337 84.6916 426.5337 89.5768 426.5337 94.4623 426.5337 99.3475 426.5337 104.2427 426.5337 109.133ZM456.1163 95.0281C457.4846 94.9652 458.8526 94.9071 460.2419 94.8444 460.2419 96.8757 460.2419 98.9169 460.2419 100.9534 460.2419 102.9898 460.2419 105.031 460.2419 107.0722 460.2419 107.4591 460.1894 107.7137 460.1171 107.8415 460.0443 107.9708 459.8507 108.1514 459.5162 108.3396 459.146 108.5479 458.9563 108.9879 458.9563 109.6988 458.9563 110.6082 459.0196 111.164 459.1015 111.3627 459.1851 111.5654 459.4331 111.6723 459.8065 111.6723 463.517 111.6723 467.2281 111.6723 470.9387 111.6723 471.4362 111.6723 471.7525 111.5878 471.8509 111.4013 471.9387 111.2349 471.996 110.6566 471.996 109.694 471.996 109.1038 471.9362 108.7529 471.8302 108.654 471.7083 108.5403 471.3667 108.3648 470.7729 108.0737 470.1433 107.765 469.8403 107.227 469.8403 106.5305 469.8403 101.5339 469.8403 96.5421 469.8403 91.5503 469.8403 86.5585 469.8403 81.5666 469.8403 76.5751 469.8403 75.7865 470.1883 75.1226 470.9387 74.5676 471.5357 74.1266 471.8302 73.7694 471.8302 73.4695 471.8302 72.9425 471.8302 72.415 471.8302 71.8877 471.8302 71.5541 471.7888 71.3412 471.685 71.2446 471.5816 71.1479 471.291 71.1298 470.7935 71.1913 467.0623 71.6522 463.3311 72.085 459.6197 72.5071 459.2469 72.5494 459.0187 72.6375 458.9357 72.773 458.8526 72.9085 458.8112 73.5083 458.8112 74.5676 458.8112 75.0946 459.0241 75.4826 459.4748 75.7525 459.9774 76.0535 460.2419 76.4442 460.2419 76.9184 460.2419 79.448 460.2419 81.9828 460.2419 84.5124 460.2419 87.0375 460.2419 89.572 460.2419 92.1067 458.8526 92.179 457.4846 92.2518 456.1163 92.3196 456.1163 89.7993 456.1163 87.2745 456.1163 84.7542 456.1163 82.239 456.1163 79.7142 456.1163 77.1942 456.1163 76.6911 456.3539 76.267 456.7799 75.9124 457.2247 75.5416 457.4429 75.0319 457.4429 74.4129 457.4429 73.5469 457.376 73.0627 457.2774 72.9522 457.1688 72.8306 456.9653 72.7792 456.6552 72.8116 452.8817 73.2047 449.1094 73.5707 445.3571 73.9244 445.0048 73.9576 444.7743 74.0537 444.6938 74.1951 444.6088 74.3437 444.5694 74.9013 444.5694 75.8591 444.5694 76.3041 444.6099 76.595 444.6938 76.7299 444.7755 76.8609 445.0209 77.0224 445.4195 77.1795 446.1608 77.472 446.5179 77.8955 446.5179 78.4709 446.5179 83.192 446.5179 87.9225 446.5179 92.6433 446.5179 97.3692 446.5179 102.0951 446.5179 106.8256 446.5179 107.2706 446.1826 107.7009 445.5437 108.1219 444.8976 108.5474 444.5694 109.1523 444.5694 109.931 444.5694 110.7581 444.6286 111.2638 444.7766 111.4206 444.9393 111.5929 445.2534 111.6723 445.7511 111.6723 449.2752 111.6723 452.7995 111.6723 456.3235 111.6723 456.8003 111.6723 457.1121 111.5957 457.2978 111.4353 457.4645 111.2913 457.5467 110.9273 457.5467 110.3664 457.5467 109.9891 457.5699 109.6109 457.5467 109.2297 457.5288 108.9371 457.3015 108.6712 456.9041 108.4606 456.3896 108.1877 456.1163 107.7446 456.1163 107.1207 456.1163 105.1036 456.1163 103.0867 456.1163 101.0696 456.1163 99.0573 456.1163 97.0404 456.1163 95.0281ZM485.8234 78.2243C483.6674 78.476 481.532 78.713 479.3967 78.9403 479.2932 78.171 479.1838 77.3977 479.1064 76.6281 479.101 76.5706 479.0778 76.5051 479.0443 76.4008 478.8916 75.9246 478.8371 75.4914 478.8371 75.0946 478.8371 74.4806 479.2269 73.8935 480.0396 73.3632 480.4498 73.0956 480.7321 72.8294 480.8273 72.5749 480.9186 72.3311 480.9725 71.9218 480.9725 71.3653 480.9725 70.6592 480.9209 70.2391 480.848 70.0982 480.7755 69.9579 480.5997 69.9083 480.3089 69.9483 478.0293 70.2612 475.7692 70.5705 473.5094 70.8525 473.1367 70.899 472.9499 71.3123 472.9499 72.0862 472.9499 73.0052 473.2566 73.7359 473.8618 74.2289 474.438 74.6983 474.7657 75.2074 474.857 75.7817 475.6363 80.6924 476.4342 85.6247 477.2203 90.5732 478.0097 95.5451 478.8082 100.5582 479.6249 105.5874 479.6997 106.0483 479.7493 106.458 479.7493 106.7964 479.7493 107.3288 479.3771 107.8044 478.6506 108.2285 478.2994 108.4331 478.1322 108.8909 478.1322 109.5922 478.1322 110.5308 478.1738 111.1161 478.2773 111.3335 478.3808 111.5512 478.6506 111.6723 479.1064 111.6723 482.3821 111.6723 485.6576 111.6723 488.9537 111.6723 489.5549 111.6723 489.9679 111.3763 490.2182 110.7822 490.4651 110.1963 490.6894 108.9142 490.9439 106.9223 491.0414 106.1575 491.1483 105.3933 491.2549 104.6392 491.9564 99.6908 492.6662 94.7137 493.3692 89.7123 494.0756 84.6867 494.7939 79.634 495.4839 74.5532 495.6851 73.0701 496.1577 71.8736 496.9559 70.988 497.1736 70.7465 497.3162 70.5815 497.391 70.4415 497.4613 70.3103 497.4741 69.9483 497.4741 69.3388 497.4741 68.4006 497.4171 67.8359 497.3083 67.6508 497.1895 67.4493 496.9352 67.3963 496.5409 67.462 492.7272 68.0975 488.9115 68.7016 485.1184 69.2663 484.7862 69.3156 484.6209 69.6773 484.6209 70.34 484.6209 71.1768 484.6637 71.7038 484.7454 71.8977 484.8293 72.0955 485.0717 72.3141 485.4917 72.536 486.0873 72.851 486.4039 73.2954 486.4039 73.8904 486.4039 74.4999 486.2174 75.9461 485.8234 78.2243ZM482.7345 101.8242C482.237 98.4671 481.7398 95.1197 481.2627 91.7921 480.7862 88.469 480.3089 85.1559 479.8321 81.8521 481.7186 81.6732 483.6257 81.4796 485.5331 81.2815 485.0563 84.7253 484.5804 88.1694 484.1235 91.5987 483.6685 95.0136 483.1906 98.4285 482.7345 101.8242ZM498.8007 109.3555C498.8007 109.8439 498.8007 110.3275 498.8007 110.8159 498.8007 111.3868 499.091 111.6723 499.6505 111.6723 503.7554 111.6723 507.8599 111.6723 511.9855 111.6723 512.4623 111.6723 512.7568 111.6037 512.8977 111.4594 513.0261 111.3282 513.1052 110.9129 513.1052 110.2116 513.1052 109.1716 513.0527 108.51 512.96 108.2622 512.8662 108.0116 512.6491 107.8543 512.3171 107.7976 511.2604 107.6176 510.7209 106.85 510.7209 105.5245 510.7209 99.6619 510.7209 93.7996 510.7209 87.942 510.7209 82.0843 510.7209 76.2219 510.7209 70.3641 510.7209 69.6243 511.1127 68.9343 511.8817 68.2988 512.3769 67.8898 512.6839 67.5658 512.7732 67.3362 512.8705 67.087 512.9391 66.7171 512.9391 66.1898 512.9391 65.8125 512.9391 65.4352 512.9391 65.058 512.9391 64.4389 512.8758 64.1024 512.7732 64.0519 512.6893 64.0106 512.4033 64.0636 511.9855 64.1727 507.801 65.2677 503.6114 66.1581 499.4229 66.9492 498.9266 67.0428 498.6972 67.288 498.6972 67.6942 498.6972 69.0146 498.7366 69.8182 498.8214 70.1079 498.9022 70.3843 499.2131 70.577 499.7129 70.6496 500.6438 70.7851 501.1226 71.2301 501.1226 72.0136 501.1226 77.5327 501.1226 83.0517 501.1226 88.5708 501.1226 94.0898 501.1226 99.6134 501.1226 105.1373 501.1226 105.9163 501.0494 106.5104 500.874 106.9126 500.6971 107.3183 500.3113 107.6471 499.7336 107.9138 499.2959 108.1159 499.0399 108.3118 498.9458 108.4703 498.8531 108.627 498.8007 108.9201 498.8007 109.3555" fill="#ffffff"/>
<path transform="matrix(1,0,0,-1,1,596.4916)" d="M421.562 522.4907C421.757 522.4907 421.9449 522.5275 422.1346 522.5924 423.0289 522.9281 423.4997 523.9721 423.1831 524.9177 422.9413 525.6683 422.2752 526.1386 421.562 526.1386 421.3726 526.1391 421.1787 526.1057 420.9894 526.0408 420.0925 525.7003 419.6242 524.6612 419.9366 523.711 420.1846 522.9649 420.8485 522.4907 421.562 522.4907ZM421.562 515.9013C421.8041 515.9483 422.0467 516.0132 422.2888 516.0974 423.9763 516.7264 425.0373 518.4085 425.0409 520.1977V520.2629C425.0373 520.7244 424.9613 521.1856 424.8085 521.6462 424.6897 522.0153 424.5174 522.3546 424.3241 522.667 423.959 521.9819 423.3685 521.4274 422.6108 521.1479 422.2672 521.0181 421.9095 520.962 421.562 520.962 420.2493 520.9622 419.0261 521.824 418.5683 523.2078 418.5159 523.3666 418.4751 523.5245 418.4442 523.6829 417.0569 522.5746 416.4409 520.5986 417.0447 518.7674 417.7091 516.7497 419.6375 515.5846 421.562 515.9013ZM434.8837 518.991C435.007 518.991 435.1343 519.0004 435.2533 519.0279 436.2885 519.247 436.9547 520.3097 436.7475 521.3954 436.566 522.3506 435.774 523.012 434.8837 523.012 434.7607 523.012 434.6334 522.993 434.5089 522.97 433.4791 522.7512 432.8189 521.6933 433.0202 520.6076 433.2016 519.6481 433.9987 518.9862 434.8837 518.991ZM434.4914 511.9087C434.6283 511.9364 434.7564 511.9685 434.8837 512.0065 437.1168 512.7049 438.5174 515.1002 438.0463 517.5607 437.9669 517.9802 437.8343 518.3804 437.6633 518.7535 437.1656 518.0635 436.4385 517.5507 435.5714 517.369 435.3469 517.3231 435.1124 517.2993 434.8837 517.2993 433.2504 517.2993 431.7874 518.5108 431.4492 520.2677 431.4183 520.4497 431.4005 520.6263 431.3869 520.8129 429.7105 519.8153 428.7549 517.7656 429.15 515.6688 429.6441 513.0638 432.0394 511.382 434.4914 511.9087ZM424.0196 475.2142 419.7487 479.5566 414.5074 476.7426 418.7784 472.3951ZM452.6892 512.0904C451.9706 511.4285 451.0327 511.0183 450.0071 511.0183 447.7564 511.0183 445.9377 512.9518 445.9377 515.3281 445.9377 515.5381 445.951 515.7524 445.9768 515.9574 443.8497 515.2402 442.3093 513.1335 442.3093 510.6362 442.3093 507.5512 444.6737 505.0539 447.5886 505.0539 448.4614 505.0542 449.2843 505.2776 450.0071 505.6781 451.7067 506.6016 452.8692 508.4742 452.8692 510.6362 452.8692 511.1399 452.8069 511.6241 452.6892 512.0904ZM450.0071 512.9898C451.2266 512.9898 452.217 514.0375 452.217 515.3281 452.217 516.619 451.2266 517.6624 450.0071 517.6624 448.7825 517.663 447.7958 516.619 447.7958 515.3281 447.7958 514.0375 448.782 512.9895 450.0071 512.9898ZM407.9721 524.298C408.2185 524.1489 408.4835 524.0837 408.7474 524.0837V524.084C409.0076 524.084 409.2712 524.1489 409.5136 524.2975 410.3011 524.755 410.584 525.8078 410.1523 526.642 409.8574 527.2058 409.3106 527.5225 408.7474 527.5321V527.5327C408.1793 527.5225 407.634 527.2053 407.3335 526.642 406.8978 525.8083 407.1847 524.755 407.9721 524.298ZM406.853 518.2594C407.4568 517.9051 408.1045 517.7466 408.7474 517.7466 409.3863 517.7466 410.0329 517.9051 410.6316 518.2591 411.8426 518.9675 412.5572 520.2536 412.6354 521.6236L412.6357 522.1179C412.6045 522.714 412.4463 523.3008 412.1552 523.8601 411.9834 524.1818 411.7776 524.4752 411.5529 524.7269 411.3108 524.0282 410.8382 523.4128 410.178 523.021 409.7208 522.7605 409.2321 522.6301 408.7474 522.6301V522.6307C408.2539 522.6307 407.7652 522.76 407.308 523.021 406.6472 523.4128 406.1789 524.0276 405.9422 524.7269 405.7081 524.4752 405.5009 524.1815 405.3291 523.8601 405.0437 523.3011 404.8892 522.7044 404.8543 522.1176V521.6284C404.9243 520.2629 405.6418 518.9771 406.853 518.2594ZM395.2009 516.0974C395.4436 516.0132 395.6896 515.9483 395.9277 515.9013 397.8522 515.5846 399.7763 516.7497 400.4464 518.7674 401.0488 520.5986 400.4328 522.574 399.0455 523.6829 399.0149 523.5245 398.9755 523.3666 398.9225 523.2078 398.4599 521.824 397.2404 520.962 395.9277 520.962 395.5799 520.9622 395.2225 521.0181 394.8789 521.1479 394.1226 521.428 393.5271 521.9819 393.1671 522.667 392.9681 522.3549 392.8017 522.0147 392.6866 521.6462 391.9289 519.3777 393.0559 516.8891 395.2009 516.0974ZM395.3594 522.5924C395.549 522.5275 395.7341 522.4907 395.9277 522.4907 396.6412 522.4907 397.3014 522.9649 397.5528 523.711 397.8655 524.6612 397.3949 525.7003 396.4961 526.0408 396.3067 526.1057 396.1171 526.1386 395.9277 526.1386 395.2188 526.1391 394.5543 525.6683 394.3026 524.9177 393.9857 523.9721 394.4608 522.9281 395.3594 522.5924ZM382.606 512.0067C382.7344 511.969 382.8617 511.9364 382.9941 511.9087 385.4509 511.382 387.8461 513.0638 388.3397 515.6688 388.7365 517.7656 387.7809 519.8153 386.1028 520.8129 386.0895 520.6266 386.0677 520.4497 386.0365 520.2677 385.7023 518.5111 384.2393 517.2993 382.606 517.2993 382.3815 517.2993 382.1445 517.3228 381.9144 517.369 381.047 517.5507 380.3204 518.0635 379.8275 518.7535 379.656 518.381 379.5231 517.9802 379.4445 517.5607 378.9723 515.1005 380.3743 512.7049 382.606 512.0067ZM382.2327 519.0282C382.3557 519.0004 382.4785 518.991 382.606 518.991 383.491 518.9862 384.2881 519.6478 384.4695 520.6076 384.6713 521.6933 384.0063 522.7512 382.9808 522.97 382.8538 522.9935 382.729 523.012 382.606 523.012 381.7168 523.012 380.9237 522.3506 380.7397 521.3954 380.5328 520.31 381.1972 519.247 382.2327 519.0282ZM413.1377 490.712 408.7474 493.9926 404.3563 490.712 408.7474 487.3944ZM404.3563 476.7426 408.7474 473.4247 413.1377 476.7426 408.7474 480.0229ZM393.4701 475.2142 398.7102 472.3951 402.9783 476.7426 397.7467 479.5566ZM375.1818 510.6362C375.1818 513.1335 373.64 515.2402 371.5087 515.9574 371.5401 515.7527 371.5478 515.5381 371.5478 515.3281 371.5478 512.9518 369.7333 511.0183 367.4843 511.0183 366.457 511.0183 365.5191 511.4285 364.8022 512.0904 364.6828 511.6241 364.6205 511.1393 364.6205 510.6362 364.6205 508.4742 365.783 506.6011 367.4843 505.6781 368.2054 505.2776 369.0337 505.0539 369.9011 505.0539 372.8123 505.0542 375.1818 507.5512 375.1818 510.6362ZM367.4843 512.9898V512.9898C368.7035 512.9898 369.6939 514.0375 369.6939 515.3281 369.6942 516.619 368.7035 517.6624 367.4843 517.6624V517.663C366.2595 517.663 365.2727 516.619 365.2727 515.3281 365.2727 514.0375 366.2595 512.9895 367.4843 512.9898ZM433.8054 482.4556C433.0919 482.6503 432.3087 482.8462 431.4274 483.0517L434.5753 491.5321C436.2361 492.6271 438.0993 494.5416 439.8205 496.5925ZM433.563 468.1035C432.9553 468.2716 432.2894 468.4391 431.555 468.6157V479.4497C432.2991 479.2589 432.9677 479.086 433.563 478.923ZM429.8063 483.4242C429.054 483.5826 428.2512 483.7501 427.411 483.9089L430.3165 491.728C430.8418 490.7957 431.5992 490.4881 432.4791 490.6188L430.7888 486.0618ZM429.2121 469.1378C428.5735 469.2733 427.9037 469.4031 427.2038 469.5338V480.414C427.909 480.2737 428.5777 480.1348 429.2121 479.9948ZM423.144 484.6173 429.9568 502.9761C429.4545 499.1783 429.3663 496.4108 429.5778 494.4671L425.7641 484.2028C424.9222 484.3466 424.0548 484.4866 423.144 484.6173ZM425.2266 469.8836C420.6824 470.6379 415.0797 471.2443 408.7474 471.2533 402.4103 471.2448 396.813 470.6379 392.2645 469.8836V480.7687C396.752 481.5465 402.3573 482.1758 408.7474 482.1846 415.1378 482.1761 420.7431 481.5462 425.2266 480.7681ZM387.9125 494.4674C388.1245 496.4108 388.0312 499.1737 387.5292 502.9756L394.3514 484.6173C393.4349 484.4866 392.5675 484.3466 391.7271 484.2023ZM390.2859 469.5344C389.5824 469.4034 388.9179 469.2733 388.2733 469.1378L388.2739 479.9954C388.9125 480.1348 389.5824 480.2737 390.2859 480.4138ZM386.7009 486.0618 385.0064 490.6191C385.8956 490.4881 386.6443 490.7957 387.1732 491.7277L390.0747 483.9089C389.2385 483.7501 388.4332 483.582 387.6834 483.4242ZM383.6942 482.4556 377.6692 496.5925C379.3904 494.5419 381.2499 492.6266 382.9144 491.5321L386.0637 483.052C385.1827 482.8462 384.3935 482.6503 383.6942 482.4556ZM385.9353 468.6163C385.196 468.4391 384.5358 468.271 383.9227 468.1035V478.9233C384.5183 479.086 385.1864 479.2586 385.9347 479.4497ZM386.9974 506.5172C386.9974 506.5172 386.9974 506.4985 386.9974 506.4891 386.9974 506.4985 386.9918 506.5123 386.9918 506.526ZM397.2487 512.2395 397.698 512.295C397.7155 512.1272 397.7467 511.9503 397.7779 511.7547 398.1728 509.6251 401.3787 494.4909 403.4886 493.6569 404.2466 493.3585 405.5536 493.4937 406.2413 494.9614 407.308 497.2173 408.1442 501.1308 408.7474 504.8583 409.3515 501.1308 410.1817 497.217 411.2444 494.9614 411.9307 493.494 413.2392 493.3582 414.0048 493.6569 416.111 494.4912 419.3116 509.6251 419.7081 511.7547 419.7526 511.9506 419.7742 512.1272 419.7917 512.295L420.2371 512.2395C419.5769 491.9326 421.6243 489.4072 424.1169 492.9015L421.4214 484.8503C417.678 485.3254 413.4149 485.6511 408.7474 485.6613 404.0748 485.6513 399.8117 485.3254 396.0646 484.8497L393.3729 492.9015C395.8617 489.4072 397.9131 491.9326 397.2487 512.2395ZM430.4937 506.5265C430.4937 506.5123 430.4937 506.4985 430.4883 506.4891 430.4883 506.4985 430.4883 506.5172 430.4883 506.5172ZM443.2907 505.8652C439.6623 500.5996 428.6923 485.7542 433.5412 510.1705L433.7824 510.8227C432.0746 510.7578 430.4665 511.5679 429.4327 512.9374 428.2393 508.9541 421.6907 488.0835 422.6066 513.2829L422.8707 515.3C422.765 515.2584 422.6539 515.2161 422.5445 515.1745 420.8839 514.5551 419.1219 514.9414 417.85 516.0319 417.67 514.7878 417.5683 513.5159 417.5101 512.9566 417.4982 512.7707 417.4761 512.5416 417.414 512.2301 416.8809 509.3782 415.6699 503.5073 414.2041 500.3946 413.8078 499.5468 413.4504 498.9781 413.1862 498.8704 413.1771 498.8665 413.1079 499.0759 412.8559 499.5462 411.9049 501.3587 410.94 508.847 410.0196 516.8704 409.5975 516.7497 409.1737 516.6887 408.7474 516.6887 408.316 516.6887 407.8882 516.7497 407.4659 516.8704 406.554 508.847 405.5851 501.3587 404.6338 499.5462 404.3832 499.0762 404.3129 498.8659 404.2993 498.8704 404.0393 498.9784 403.6836 499.5462 403.2867 500.3946 401.8241 503.5073 400.6142 509.3782 400.0757 512.2301 400.0187 512.5416 399.9932 512.7707 399.9739 512.9566 399.9175 513.5162 399.8214 514.7875 399.6397 516.0319 398.3624 514.9417 396.6015 514.5551 394.9413 515.1745 394.8355 515.2167 394.7261 515.2584 394.6243 515.3L394.8843 513.2832C395.7965 488.084 389.2518 508.9535 388.0582 512.9374 387.0232 511.5679 385.4208 510.7575 383.7076 510.8227L383.9443 510.1705C388.7932 485.7542 377.833 500.5996 374.1951 505.8649 373.5485 505.1846 372.7593 504.667 371.8689 504.3455L381.4044 481.8025C381.2187 481.7424 381.0291 481.6814 380.8709 481.6352 380.6019 481.6117 380.3241 481.5414 380.0523 481.4203 378.9332 480.9365 378.3078 479.8083 378.6554 478.9131 378.9601 478.131 379.906 477.7764 380.8885 478.0239L380.9018 477.9825C380.9061 477.9825 381.1442 478.0701 381.5838 478.2149V467.4512C381.3163 467.3676 381.0779 467.2885 380.8709 467.2276 380.6019 467.1995 380.3241 467.1298 380.0523 467.0039 378.9332 466.5243 378.3078 465.4012 378.6554 464.506 378.9601 463.7231 379.906 463.3648 380.8885 463.6114L380.9018 463.5692C380.9548 463.5884 392.2682 467.7491 408.7474 467.7772 425.2226 467.7491 436.5388 463.5884 436.5836 463.5692L436.6054 463.6114C437.5797 463.3648 438.5307 463.7231 438.8343 464.506 439.1819 465.4015 438.5565 466.5243 437.4391 467.0039 437.1602 467.1298 436.8827 467.1995 436.6188 467.2276 436.4079 467.2885 436.1709 467.3673 435.9053 467.4512V478.2149C436.3415 478.0701 436.5794 477.9822 436.5836 477.9822L436.6054 478.0242C437.5797 477.7767 438.5307 478.131 438.8343 478.9131 439.1819 479.8083 438.5565 480.9362 437.4391 481.4203 437.1602 481.5417 436.8827 481.6117 436.6188 481.6352 436.4646 481.6814 436.2752 481.7424 436.0813 481.8025L445.6157 504.3455C444.7361 504.6676 443.9387 505.1846 443.2907 505.8652" fill="#daa728" fill-rule="evenodd"/>
<path transform="matrix(1,0,0,-1,1,596.4916)" stroke-width="10.0001" stroke-linecap="butt" stroke-miterlimit="22.925585" stroke-linejoin="miter" fill="none" stroke="#d9a628" d="M153.2747 190.3683 176.5443 198.6803 184.3004 219.8443V247.9184L172.6393 245.5483V235.9511L168.7876 225.2687 161.0311 223.0824 157.1794 232.0118C157.1794 232.0118 157.1794 247.0337 157.1794 262.0553 157.1794 277.0773 157.1794 292.1156 157.1794 292.1156L161.0311 302.4306 168.7876 303.0316 172.6393 293.6846V284.0706L184.3004 285.3893V313.4299L176.5443 332.2071H153.2747L145.571 311.4437C145.571 311.4437 145.571 285.5395 145.571 259.6686 145.571 233.7979 145.571 207.9269 145.571 207.9269L153.2747 190.3683ZM192.9013 203.6041 212.2662 208.6948V235.133L208.3615 234.3654V261.0706L220.0226 262.673V236.5852L216.1179 235.9009V209.6629L235.4828 213.9523V239.2557L231.6308 238.6216C231.6308 238.6216 231.6308 255.6462 231.6308 272.6541 231.6308 289.662 231.6308 306.6701 231.6308 306.6701L235.4828 306.8368V332.2071H216.1179V305.9189L220.0226 306.1193V288.7441L208.3615 287.7426V305.5017L212.2662 305.7188V332.2071H192.9013V304.617L196.7533 304.8508C196.7533 304.8508 196.7533 286.6411 196.7533 268.4146 196.7533 250.2048 196.7533 231.9786 196.7533 231.9786L192.9013 231.1274V203.6041ZM267.353 243.9626 259.5966 242.8946 255.6918 250.522C255.6918 250.522 255.6918 262.7731 255.6918 275.0241 255.6918 287.2587 255.6918 299.5098 255.6918 299.5098L259.5966 307.8383 267.353 308.1223 271.205 300.2774C271.205 300.2774 271.205 288.3101 271.205 276.3595 271.205 264.3922 271.205 252.4416 271.205 252.4416L267.353 243.9626ZM251.8401 217.1906 275.1094 221.163 282.8132 238.0541C282.8132 238.0541 282.8132 257.6659 282.8132 277.2609 282.8132 296.856 282.8132 316.4678 282.8132 316.4678L275.1094 332.2071H251.8401L244.0837 315.5162C244.0837 315.5162 244.0837 294.6861 244.0837 273.9061 244.0837 253.1092 244.0837 232.3123 244.0837 232.3123L251.8401 217.1906ZM314.6834 249.1534 306.9269 248.4357 303.0752 255.7131C303.0752 255.7131 303.0752 267.1795 303.0752 278.6295 303.0752 290.0959 303.0752 301.5794 303.0752 301.5794L306.9269 309.3574 314.6834 309.5408 318.5881 302.097C318.5881 302.097 318.5881 290.8304 318.5881 279.5641 318.5881 268.2978 318.5881 257.0315 318.5881 257.0315L314.6834 249.1534ZM310.8317 210.9314 322.4401 212.4669 318.5881 226.9712 322.4401 227.4219 330.1963 243.0278C330.1963 243.0278 330.1963 261.5882 330.1963 280.165 330.1963 298.7252 330.1963 317.302 330.1963 317.302L322.4401 332.2071H299.1705L291.4668 316.6512C291.4668 316.6512 291.4668 297.2565 291.4668 277.8616 291.4668 258.4834 291.4668 239.0888 291.4668 239.0888L299.1705 224.6179 306.9269 225.6194 310.8317 210.9314ZM350.4056 229.9422 369.7705 231.1775 377.5269 245.9322C377.5269 245.9322 377.5269 262.1055 377.5269 278.2791 377.5269 294.4525 377.5269 310.6259 377.5269 310.6259L381.3786 310.6426V332.2071H362.014V310.4422L365.9185 310.4923C365.9185 310.4923 365.9185 297.824 365.9185 285.1889 365.9185 272.5373 365.9185 259.869 365.9185 259.869L362.014 252.4581 358.162 252.2914 354.31 259.3514C354.31 259.3514 354.31 272.1033 354.31 284.8385 354.31 297.5902 354.31 310.3254 354.31 310.3254L358.162 310.3923V332.2071H338.7971V310.0751L342.6491 310.1417C342.6491 310.1417 342.6491 293.6177 342.6491 277.0773 342.6491 260.5533 342.6491 244.0293 342.6491 244.0293L350.4056 229.9422ZM389.9795 232.0118 428.7617 231.8117V260.4866L417.1005 260.7369V253.5763L405.4924 253.66V275.091L421.0055 274.991V296.4385L405.4924 296.5054V310.7761L417.1005 310.7426V303.5991L428.7617 303.4987C428.7617 303.4987 428.7617 310.6757 428.7617 317.8361 428.7617 325.0134 428.7617 332.2071 428.7617 332.2071H389.9795V310.7092L393.8839 310.7426C393.8839 310.7426 393.8839 296.4385 393.8839 282.1346 393.8839 267.8304 393.8839 253.5432 393.8839 253.5432L389.9795 253.4596V232.0118ZM437.3626 231.3278 448.971 230.4264V234.0649L450.9232 230.2761 468.3359 228.4401 476.0921 242.4603C476.0921 242.4603 476.0921 251.8072 476.0921 261.1542 476.0921 270.4844 476.0921 279.8478 476.0921 279.8478L468.3359 295.1368 452.8227 295.7374 448.971 303.1149 452.8227 310.3087 462.5317 310.0918 464.4839 306.3696V302.6642L476.0921 302.2804C476.0921 302.2804 476.0921 309.7579 476.0921 317.2354 476.0921 324.7129 476.0921 332.2071 476.0921 332.2071H464.4839V328.485L462.5317 332.2071H445.119L437.3626 317.7527V288.9442L445.119 274.2398 460.5792 273.4387 464.4839 265.7775V258.4001L460.5792 251.3733 450.9232 252.091 448.971 255.8633V259.5016L437.3626 260.136V231.3278ZM496.3014 224.5677 515.6663 221.313V245.0475L511.8143 245.5982C511.8143 245.5982 511.8143 261.3379 511.8143 277.0773 511.8143 292.8334 511.8143 308.5727 511.8143 308.5727L515.6663 308.4228V300.4943L527.3274 299.8769C527.3274 299.8769 527.3274 307.9553 527.3274 316.0335 527.3274 324.112 527.3274 332.2071 527.3274 332.2071H484.6929C484.6929 332.2071 484.6929 324.6293 484.6929 317.0517 484.6929 309.4909 484.6929 301.9297 484.6929 301.9297L496.3014 301.4291V309.1238L500.2061 308.99C500.2061 308.99 500.2061 293.5176 500.2061 278.0453 500.2061 262.5729 500.2061 247.1173 500.2061 247.1173L496.3014 247.6179V224.5677ZM547.5365 215.1043 566.9014 210.9146V236.8857L563.0494 237.5365V263.374C563.0494 263.374 565.4871 273.8704 567.851 284.4547 570.236 295.1342 572.7053 305.9189 572.7053 305.9189L578.5095 305.6352V332.2071H559.1446V306.5533L561.0971 306.4697 557.1924 289.6288 553.3404 306.8203 555.2926 306.7367V332.2071H535.928V307.588L541.7323 307.3377C541.7323 307.3377 544.17 296.8413 546.5339 286.2573 548.9186 275.5774 551.3882 264.8095 551.3882 264.8095V239.5227L547.5365 240.1739V215.1043ZM587.1104 206.3582 625.8399 197.195V235.7507L614.2317 237.7369V228.2732L602.6233 230.4428C602.6233 230.4428 602.6233 248.9363 602.6233 267.4466 602.6233 285.9401 602.6233 304.4336 602.6233 304.4336L606.475 304.2332V332.2071H587.1104V305.2179L590.9621 305.0175C590.9621 305.0175 590.9621 286.9081 590.9621 268.8154 590.9621 250.7057 590.9621 232.596 590.9621 232.596L587.1104 233.2973V206.3582ZM634.4408 195.1418 673.2232 186.179V227.8894L661.5618 229.7588V219.4937L649.9536 221.5967V251.7738L665.4665 249.7544V280.6656L649.9536 281.9341V302.0301L661.5618 301.4459V291.2142L673.2232 290.4633C673.2232 290.4633 673.2232 300.8951 673.2232 311.3269 673.2232 321.7586 673.2232 332.2071 673.2232 332.2071H634.4408V302.8144L638.3452 302.614C638.3452 302.614 638.3452 282.9025 638.3452 263.1903 638.3452 243.4618 638.3452 223.7499 638.3452 223.7499L634.4408 224.4844V195.1418Z"/>
<path transform="matrix(1,0,0,-1,1,596.4916)" d="M153.2747 190.3683 176.5443 198.6803 184.3004 219.8443V247.9184L172.6393 245.5483V235.9511L168.7876 225.2687 161.0311 223.0824 157.1794 232.0118C157.1794 232.0118 157.1794 247.0337 157.1794 262.0553 157.1794 277.0773 157.1794 292.1156 157.1794 292.1156L161.0311 302.4306 168.7876 303.0316 172.6393 293.6846V284.0706L184.3004 285.3893V313.4299L176.5443 332.2071H153.2747L145.571 311.4437C145.571 311.4437 145.571 285.5395 145.571 259.6686 145.571 233.7979 145.571 207.9269 145.571 207.9269L153.2747 190.3683ZM192.9013 203.6041 212.2662 208.6948V235.133L208.3615 234.3654V261.0706L220.0226 262.673V236.5852L216.1179 235.9009V209.6629L235.4828 213.9523V239.2557L231.6308 238.6216C231.6308 238.6216 231.6308 255.6462 231.6308 272.6541 231.6308 289.662 231.6308 306.6701 231.6308 306.6701L235.4828 306.8368V332.2071H216.1179V305.9189L220.0226 306.1193V288.7441L208.3615 287.7426V305.5017L212.2662 305.7188V332.2071H192.9013V304.617L196.7533 304.8508C196.7533 304.8508 196.7533 286.6411 196.7533 268.4146 196.7533 250.2048 196.7533 231.9786 196.7533 231.9786L192.9013 231.1274V203.6041ZM267.353 243.9626 259.5966 242.8946 255.6918 250.522C255.6918 250.522 255.6918 262.7731 255.6918 275.0241 255.6918 287.2587 255.6918 299.5098 255.6918 299.5098L259.5966 307.8383 267.353 308.1223 271.205 300.2774C271.205 300.2774 271.205 288.3101 271.205 276.3595 271.205 264.3922 271.205 252.4416 271.205 252.4416L267.353 243.9626ZM251.8401 217.1906 275.1094 221.163 282.8132 238.0541C282.8132 238.0541 282.8132 257.6659 282.8132 277.2609 282.8132 296.856 282.8132 316.4678 282.8132 316.4678L275.1094 332.2071H251.8401L244.0837 315.5162C244.0837 315.5162 244.0837 294.6861 244.0837 273.9061 244.0837 253.1092 244.0837 232.3123 244.0837 232.3123L251.8401 217.1906ZM314.6834 249.1534 306.9269 248.4357 303.0752 255.7131C303.0752 255.7131 303.0752 267.1795 303.0752 278.6295 303.0752 290.0959 303.0752 301.5794 303.0752 301.5794L306.9269 309.3574 314.6834 309.5408 318.5881 302.097C318.5881 302.097 318.5881 290.8304 318.5881 279.5641 318.5881 268.2978 318.5881 257.0315 318.5881 257.0315L314.6834 249.1534ZM310.8317 210.9314 322.4401 212.4669 318.5881 226.9712 322.4401 227.4219 330.1963 243.0278C330.1963 243.0278 330.1963 261.5882 330.1963 280.165 330.1963 298.7252 330.1963 317.302 330.1963 317.302L322.4401 332.2071H299.1705L291.4668 316.6512C291.4668 316.6512 291.4668 297.2565 291.4668 277.8616 291.4668 258.4834 291.4668 239.0888 291.4668 239.0888L299.1705 224.6179 306.9269 225.6194 310.8317 210.9314ZM350.4056 229.9422 369.7705 231.1775 377.5269 245.9322C377.5269 245.9322 377.5269 262.1055 377.5269 278.2791 377.5269 294.4525 377.5269 310.6259 377.5269 310.6259L381.3786 310.6426V332.2071H362.014V310.4422L365.9185 310.4923C365.9185 310.4923 365.9185 297.824 365.9185 285.1889 365.9185 272.5373 365.9185 259.869 365.9185 259.869L362.014 252.4581 358.162 252.2914 354.31 259.3514C354.31 259.3514 354.31 272.1033 354.31 284.8385 354.31 297.5902 354.31 310.3254 354.31 310.3254L358.162 310.3923V332.2071H338.7971V310.0751L342.6491 310.1417C342.6491 310.1417 342.6491 293.6177 342.6491 277.0773 342.6491 260.5533 342.6491 244.0293 342.6491 244.0293L350.4056 229.9422ZM389.9795 232.0118 428.7617 231.8117V260.4866L417.1005 260.7369V253.5763L405.4924 253.66V275.091L421.0055 274.991V296.4385L405.4924 296.5054V310.7761L417.1005 310.7426V303.5991L428.7617 303.4987C428.7617 303.4987 428.7617 310.6757 428.7617 317.8361 428.7617 325.0134 428.7617 332.2071 428.7617 332.2071H389.9795V310.7092L393.8839 310.7426C393.8839 310.7426 393.8839 296.4385 393.8839 282.1346 393.8839 267.8304 393.8839 253.5432 393.8839 253.5432L389.9795 253.4596V232.0118ZM437.3626 231.3278 448.971 230.4264V234.0649L450.9232 230.2761 468.3359 228.4401 476.0921 242.4603C476.0921 242.4603 476.0921 251.8072 476.0921 261.1542 476.0921 270.4844 476.0921 279.8478 476.0921 279.8478L468.3359 295.1368 452.8227 295.7374 448.971 303.1149 452.8227 310.3087 462.5317 310.0918 464.4839 306.3696V302.6642L476.0921 302.2804C476.0921 302.2804 476.0921 309.7579 476.0921 317.2354 476.0921 324.7129 476.0921 332.2071 476.0921 332.2071H464.4839V328.485L462.5317 332.2071H445.119L437.3626 317.7527V288.9442L445.119 274.2398 460.5792 273.4387 464.4839 265.7775V258.4001L460.5792 251.3733 450.9232 252.091 448.971 255.8633V259.5016L437.3626 260.136V231.3278ZM496.3014 224.5677 515.6663 221.313V245.0475L511.8143 245.5982C511.8143 245.5982 511.8143 261.3379 511.8143 277.0773 511.8143 292.8334 511.8143 308.5727 511.8143 308.5727L515.6663 308.4228V300.4943L527.3274 299.8769C527.3274 299.8769 527.3274 307.9553 527.3274 316.0335 527.3274 324.112 527.3274 332.2071 527.3274 332.2071H484.6929C484.6929 332.2071 484.6929 324.6293 484.6929 317.0517 484.6929 309.4909 484.6929 301.9297 484.6929 301.9297L496.3014 301.4291V309.1238L500.2061 308.99C500.2061 308.99 500.2061 293.5176 500.2061 278.0453 500.2061 262.5729 500.2061 247.1173 500.2061 247.1173L496.3014 247.6179V224.5677ZM547.5365 215.1043 566.9014 210.9146V236.8857L563.0494 237.5365V263.374C563.0494 263.374 565.4871 273.8704 567.851 284.4547 570.236 295.1342 572.7053 305.9189 572.7053 305.9189L578.5095 305.6352V332.2071H559.1446V306.5533L561.0971 306.4697 557.1924 289.6288 553.3404 306.8203 555.2926 306.7367V332.2071H535.928V307.588L541.7323 307.3377C541.7323 307.3377 544.17 296.8413 546.5339 286.2573 548.9186 275.5774 551.3882 264.8095 551.3882 264.8095V239.5227L547.5365 240.1739V215.1043ZM587.1104 206.3582 625.8399 197.195V235.7507L614.2317 237.7369V228.2732L602.6233 230.4428C602.6233 230.4428 602.6233 248.9363 602.6233 267.4466 602.6233 285.9401 602.6233 304.4336 602.6233 304.4336L606.475 304.2332V332.2071H587.1104V305.2179L590.9621 305.0175C590.9621 305.0175 590.9621 286.9081 590.9621 268.8154 590.9621 250.7057 590.9621 232.596 590.9621 232.596L587.1104 233.2973V206.3582ZM634.4408 195.1418 673.2232 186.179V227.8894L661.5618 229.7588V219.4937L649.9536 221.5967V251.7738L665.4665 249.7544V280.6656L649.9536 281.9341V302.0301L661.5618 301.4459V291.2142L673.2232 290.4633C673.2232 290.4633 673.2232 300.8951 673.2232 311.3269 673.2232 321.7586 673.2232 332.2071 673.2232 332.2071H634.4408V302.8144L638.3452 302.614C638.3452 302.614 638.3452 282.9025 638.3452 263.1903 638.3452 243.4618 638.3452 223.7499 638.3452 223.7499L634.4408 224.4844V195.1418" fill="#231f20"/>
</g>
</svg>
